G04 (created by PCBNEW-RS274X (2011-07-19)-testing) date Fri 05 Aug 2011 12:19:43 PM PDT*
G01*
G70*
G90*
%MOIN*%
G04 Gerber Fmt 3.4, Leading zero omitted, Abs format*
%FSLAX34Y34*%
G04 APERTURE LIST*
%ADD10C,0.006000*%
%ADD11C,0.130000*%
%ADD12C,0.160000*%
%ADD13C,0.060000*%
%ADD14C,0.055000*%
%ADD15C,0.085000*%
%ADD16R,0.060000X0.060000*%
%ADD17C,0.100000*%
%ADD18R,0.060000X0.069000*%
%ADD19C,0.069000*%
%ADD20R,0.070000X0.070000*%
%ADD21C,0.070000*%
%ADD22C,0.200000*%
%ADD23C,0.181100*%
%ADD24C,0.035000*%
%ADD25C,0.020000*%
%ADD26C,0.008000*%
%ADD27C,0.010000*%
G04 APERTURE END LIST*
G54D10*
G54D11*
X32000Y-14500D03*
X32000Y-45500D03*
X87000Y-45500D03*
X87000Y-14500D03*
G54D12*
X54970Y-17565D03*
X82530Y-37250D03*
X82530Y-17565D03*
X54970Y-37250D03*
G54D13*
X38300Y-27400D03*
X38300Y-23400D03*
G54D14*
X50750Y-38000D03*
X50750Y-35000D03*
X49000Y-38000D03*
X49000Y-35000D03*
G54D15*
X43820Y-19500D03*
X45300Y-19500D03*
X46780Y-19500D03*
G54D12*
X43130Y-15560D03*
X47470Y-15560D03*
G54D16*
X86000Y-37500D03*
G54D13*
X86000Y-36500D03*
X86000Y-35500D03*
X86000Y-34500D03*
G54D17*
X48900Y-26900D03*
X48900Y-24900D03*
G54D14*
X41800Y-24900D03*
X41800Y-25900D03*
G54D18*
X45000Y-30100D03*
G54D19*
X44000Y-30100D03*
X43000Y-30100D03*
X42000Y-30100D03*
X41000Y-30100D03*
X40000Y-30100D03*
X39000Y-30100D03*
X38000Y-30100D03*
X37000Y-30100D03*
X36000Y-30100D03*
X35000Y-30100D03*
X34000Y-30100D03*
X33000Y-30100D03*
X32000Y-30100D03*
X31000Y-30100D03*
X31000Y-36100D03*
X32000Y-36100D03*
X33000Y-36100D03*
X34000Y-36100D03*
X35000Y-36100D03*
X36000Y-36100D03*
X37000Y-36100D03*
X38000Y-36100D03*
X39000Y-36100D03*
X40000Y-36100D03*
X41000Y-36100D03*
X42000Y-36100D03*
X43000Y-36100D03*
X44000Y-36100D03*
X45000Y-36100D03*
G54D20*
X43750Y-42500D03*
G54D21*
X43750Y-41500D03*
X44750Y-42500D03*
X44750Y-41500D03*
X45750Y-42500D03*
X45750Y-41500D03*
X46750Y-42500D03*
X46750Y-41500D03*
X47750Y-42500D03*
X47750Y-41500D03*
X48750Y-42500D03*
X48750Y-41500D03*
G54D20*
X34250Y-42500D03*
G54D21*
X34250Y-41500D03*
X35250Y-42500D03*
X35250Y-41500D03*
X36250Y-42500D03*
X36250Y-41500D03*
X37250Y-42500D03*
X37250Y-41500D03*
X38250Y-42500D03*
X38250Y-41500D03*
X39250Y-42500D03*
X39250Y-41500D03*
G54D20*
X62250Y-42500D03*
G54D21*
X62250Y-41500D03*
X63250Y-42500D03*
X63250Y-41500D03*
X64250Y-42500D03*
X64250Y-41500D03*
X65250Y-42500D03*
X65250Y-41500D03*
G54D20*
X78750Y-42500D03*
G54D21*
X78750Y-41500D03*
X79750Y-42500D03*
X79750Y-41500D03*
X80750Y-42500D03*
X80750Y-41500D03*
X81750Y-42500D03*
X81750Y-41500D03*
G54D20*
X54750Y-42500D03*
G54D21*
X54750Y-41500D03*
X55750Y-42500D03*
X55750Y-41500D03*
X56750Y-42500D03*
X56750Y-41500D03*
X57750Y-42500D03*
X57750Y-41500D03*
G54D20*
X71250Y-42500D03*
G54D21*
X71250Y-41500D03*
X72250Y-42500D03*
X72250Y-41500D03*
X73250Y-42500D03*
X73250Y-41500D03*
X74250Y-42500D03*
X74250Y-41500D03*
G54D16*
X34300Y-25650D03*
G54D13*
X34300Y-24650D03*
X35300Y-25650D03*
X35300Y-24650D03*
G54D22*
X36000Y-19000D03*
G54D23*
X33638Y-19000D03*
G54D24*
X65183Y-43433D03*
X57818Y-43441D03*
X43927Y-38000D03*
X41394Y-43053D03*
X74660Y-42983D03*
X40344Y-39382D03*
X78392Y-39690D03*
X45299Y-43274D03*
X40600Y-26286D03*
X58755Y-43829D03*
X49805Y-42302D03*
G54D25*
X37354Y-43604D02*
X36250Y-42500D01*
X44435Y-43604D02*
X37354Y-43604D01*
X45539Y-42500D02*
X44435Y-43604D01*
X45750Y-42500D02*
X45539Y-42500D01*
X65183Y-43433D02*
X64250Y-42500D01*
X57782Y-43405D02*
X57818Y-43441D01*
X56750Y-43405D02*
X57782Y-43405D01*
X56750Y-42500D02*
X56750Y-43405D01*
X47187Y-43937D02*
X45750Y-42500D01*
X56218Y-43937D02*
X47187Y-43937D01*
X56750Y-43405D02*
X56218Y-43937D01*
X50750Y-39487D02*
X50750Y-38000D01*
X54316Y-43053D02*
X50750Y-39487D01*
X55197Y-43053D02*
X54316Y-43053D01*
X55750Y-42500D02*
X55197Y-43053D01*
X42451Y-39476D02*
X43927Y-38000D01*
X42451Y-42264D02*
X42451Y-39476D01*
X43288Y-43101D02*
X42451Y-42264D01*
X44149Y-43101D02*
X43288Y-43101D01*
X44750Y-42500D02*
X44149Y-43101D01*
X42183Y-42264D02*
X41394Y-43053D01*
X42451Y-42264D02*
X42183Y-42264D01*
X74589Y-43054D02*
X74660Y-42983D01*
X72804Y-43054D02*
X74589Y-43054D01*
X72250Y-42500D02*
X72804Y-43054D01*
X40300Y-25400D02*
X38300Y-23400D01*
X42427Y-25400D02*
X40300Y-25400D01*
X46493Y-29466D02*
X42427Y-25400D01*
X46493Y-35493D02*
X46493Y-29466D01*
X49000Y-38000D02*
X46493Y-35493D01*
G54D26*
X37250Y-38350D02*
X35000Y-36100D01*
X37250Y-41500D02*
X37250Y-38350D01*
X38250Y-38350D02*
X36000Y-36100D01*
X38250Y-41500D02*
X38250Y-38350D01*
X39250Y-38350D02*
X37000Y-36100D01*
X39250Y-41500D02*
X39250Y-38350D01*
X40511Y-39215D02*
X40344Y-39382D01*
X40511Y-30589D02*
X40511Y-39215D01*
X41000Y-30100D02*
X40511Y-30589D01*
X38791Y-43041D02*
X38250Y-42500D01*
X39638Y-43041D02*
X38791Y-43041D01*
X40085Y-42594D02*
X39638Y-43041D01*
X40085Y-39641D02*
X40085Y-42594D01*
X40344Y-39382D02*
X40085Y-39641D01*
X39489Y-30611D02*
X40000Y-30100D01*
X39489Y-40961D02*
X39489Y-30611D01*
X39828Y-41300D02*
X39489Y-40961D01*
X39828Y-41922D02*
X39828Y-41300D01*
X39250Y-42500D02*
X39828Y-41922D01*
X57244Y-42006D02*
X57750Y-41500D01*
X56272Y-42006D02*
X57244Y-42006D01*
X56250Y-42028D02*
X56272Y-42006D01*
X56250Y-42710D02*
X56250Y-42028D01*
X55485Y-43475D02*
X56250Y-42710D01*
X51429Y-43475D02*
X55485Y-43475D01*
X49938Y-41984D02*
X51429Y-43475D01*
X49673Y-41984D02*
X49938Y-41984D01*
X49657Y-42000D02*
X49673Y-41984D01*
X44250Y-42000D02*
X49657Y-42000D01*
X43750Y-41500D02*
X44250Y-42000D01*
X59560Y-39690D02*
X78392Y-39690D01*
X57750Y-41500D02*
X59560Y-39690D01*
X38511Y-29611D02*
X39000Y-30100D01*
X37522Y-29611D02*
X38511Y-29611D01*
X37500Y-29633D02*
X37522Y-29611D01*
X37500Y-30339D02*
X37500Y-29633D01*
X33500Y-34339D02*
X37500Y-30339D01*
X33500Y-40750D02*
X33500Y-34339D01*
X34250Y-41500D02*
X33500Y-40750D01*
X34501Y-40751D02*
X35250Y-41500D01*
X34501Y-33599D02*
X34501Y-40751D01*
X38000Y-30100D02*
X34501Y-33599D01*
X64744Y-42006D02*
X65250Y-41500D01*
X60012Y-42006D02*
X64744Y-42006D01*
X57818Y-44200D02*
X60012Y-42006D01*
X46059Y-44200D02*
X57818Y-44200D01*
X45299Y-43440D02*
X46059Y-44200D01*
X44854Y-43885D02*
X45299Y-43440D01*
X36431Y-43885D02*
X44854Y-43885D01*
X35756Y-43210D02*
X36431Y-43885D01*
X35756Y-42006D02*
X35756Y-43210D01*
X35250Y-41500D02*
X35756Y-42006D01*
X45299Y-43440D02*
X45299Y-43274D01*
X41500Y-27186D02*
X40600Y-26286D01*
X41500Y-35600D02*
X41500Y-27186D01*
X41000Y-36100D02*
X41500Y-35600D01*
X54750Y-39000D02*
X50750Y-35000D01*
X54750Y-41500D02*
X54750Y-39000D01*
X50099Y-33901D02*
X49000Y-35000D01*
X50331Y-33901D02*
X50099Y-33901D01*
X51257Y-34827D02*
X50331Y-33901D01*
X51257Y-34966D02*
X51257Y-34827D01*
X55750Y-39459D02*
X51257Y-34966D01*
X55750Y-41500D02*
X55750Y-39459D01*
G54D25*
X71250Y-42500D02*
X70697Y-42500D01*
X78750Y-42500D02*
X78474Y-42500D01*
X78474Y-42500D02*
X78474Y-43054D01*
X78158Y-43370D02*
X78474Y-43054D01*
X72120Y-43370D02*
X78158Y-43370D01*
X71250Y-42500D02*
X72120Y-43370D01*
X86000Y-39097D02*
X86000Y-37500D01*
X82043Y-43054D02*
X86000Y-39097D01*
X78474Y-43054D02*
X82043Y-43054D01*
X62250Y-42500D02*
X62250Y-43053D01*
X52081Y-39831D02*
X54750Y-42500D01*
X52081Y-38641D02*
X52081Y-39831D01*
X50583Y-37143D02*
X52081Y-38641D01*
X49520Y-37143D02*
X50583Y-37143D01*
X40194Y-19000D02*
X48497Y-27303D01*
X36000Y-19000D02*
X40194Y-19000D01*
X48497Y-36120D02*
X48497Y-27303D01*
X49520Y-37143D02*
X48497Y-36120D01*
X48497Y-27303D02*
X48900Y-26900D01*
X62250Y-42500D02*
X61697Y-42500D01*
X43175Y-40621D02*
X46234Y-37562D01*
X43175Y-41925D02*
X43175Y-40621D01*
X43750Y-42500D02*
X43175Y-41925D01*
X45582Y-36911D02*
X46234Y-37562D01*
X45582Y-36682D02*
X45582Y-36911D01*
X45000Y-36100D02*
X45582Y-36682D01*
X49520Y-38437D02*
X49520Y-37143D01*
X49463Y-38494D02*
X49520Y-38437D01*
X47165Y-38494D02*
X49463Y-38494D01*
X46234Y-37562D02*
X47165Y-38494D01*
X58767Y-43817D02*
X58755Y-43829D01*
X58767Y-43816D02*
X58767Y-43817D01*
X60381Y-43816D02*
X58767Y-43816D01*
X61697Y-42500D02*
X60381Y-43816D01*
X69373Y-43824D02*
X70697Y-42500D01*
X63021Y-43824D02*
X69373Y-43824D01*
X62250Y-43053D02*
X63021Y-43824D01*
X82330Y-40170D02*
X82330Y-40941D01*
X86000Y-36500D02*
X82330Y-40170D01*
X82330Y-41920D02*
X81750Y-42500D01*
X82330Y-40941D02*
X82330Y-41920D01*
X74833Y-40941D02*
X74804Y-40970D01*
X82330Y-40941D02*
X74833Y-40941D01*
X74804Y-41946D02*
X74804Y-40970D01*
X74250Y-42500D02*
X74804Y-41946D01*
X65888Y-40946D02*
X65830Y-41004D01*
X74780Y-40946D02*
X65888Y-40946D01*
X74804Y-40970D02*
X74780Y-40946D01*
X65773Y-40947D02*
X65830Y-41004D01*
X59303Y-40947D02*
X65773Y-40947D01*
X57750Y-42500D02*
X59303Y-40947D01*
X65830Y-41920D02*
X65250Y-42500D01*
X65830Y-41004D02*
X65830Y-41920D01*
X39781Y-25900D02*
X41800Y-25900D01*
X33638Y-19757D02*
X39781Y-25900D01*
X33638Y-19000D02*
X33638Y-19757D01*
X41800Y-29900D02*
X42000Y-30100D01*
X41800Y-25900D02*
X41800Y-29900D01*
X44000Y-32100D02*
X44000Y-36100D01*
X42000Y-30100D02*
X44000Y-32100D01*
X46780Y-22780D02*
X46780Y-19500D01*
X48900Y-24900D02*
X46780Y-22780D01*
X47429Y-43179D02*
X46750Y-42500D01*
X48928Y-43179D02*
X47429Y-43179D01*
X49805Y-42302D02*
X48928Y-43179D01*
X44000Y-36261D02*
X44000Y-36100D01*
X40329Y-39932D02*
X44000Y-36261D01*
X40329Y-42740D02*
X40329Y-39932D01*
X39784Y-43285D02*
X40329Y-42740D01*
X38035Y-43285D02*
X39784Y-43285D01*
X37250Y-42500D02*
X38035Y-43285D01*
G54D26*
X36050Y-25150D02*
X38300Y-27400D01*
X34800Y-25150D02*
X36050Y-25150D01*
X34300Y-24650D02*
X34800Y-25150D01*
G54D10*
G36*
X38597Y-43254D02*
X37498Y-43254D01*
X37329Y-43085D01*
X37394Y-43082D01*
X37560Y-43013D01*
X37593Y-42914D01*
X37285Y-42606D01*
X37250Y-42571D01*
X37179Y-42500D01*
X37144Y-42465D01*
X36836Y-42157D01*
X36765Y-42180D01*
X36758Y-42161D01*
X36597Y-42000D01*
X36750Y-41847D01*
X36911Y-42008D01*
X36930Y-42015D01*
X36907Y-42086D01*
X37250Y-42429D01*
X37593Y-42086D01*
X37569Y-42015D01*
X37589Y-42008D01*
X37750Y-41847D01*
X37903Y-42000D01*
X37742Y-42161D01*
X37734Y-42180D01*
X37664Y-42157D01*
X37321Y-42500D01*
X37664Y-42843D01*
X37734Y-42819D01*
X37742Y-42839D01*
X37911Y-43008D01*
X38131Y-43099D01*
X38369Y-43099D01*
X38418Y-43078D01*
X38586Y-43246D01*
X38597Y-43254D01*
X38597Y-43254D01*
G37*
G54D27*
X38597Y-43254D02*
X37498Y-43254D01*
X37329Y-43085D01*
X37394Y-43082D01*
X37560Y-43013D01*
X37593Y-42914D01*
X37285Y-42606D01*
X37250Y-42571D01*
X37179Y-42500D01*
X37144Y-42465D01*
X36836Y-42157D01*
X36765Y-42180D01*
X36758Y-42161D01*
X36597Y-42000D01*
X36750Y-41847D01*
X36911Y-42008D01*
X36930Y-42015D01*
X36907Y-42086D01*
X37250Y-42429D01*
X37593Y-42086D01*
X37569Y-42015D01*
X37589Y-42008D01*
X37750Y-41847D01*
X37903Y-42000D01*
X37742Y-42161D01*
X37734Y-42180D01*
X37664Y-42157D01*
X37321Y-42500D01*
X37664Y-42843D01*
X37734Y-42819D01*
X37742Y-42839D01*
X37911Y-43008D01*
X38131Y-43099D01*
X38369Y-43099D01*
X38418Y-43078D01*
X38586Y-43246D01*
X38597Y-43254D01*
G54D10*
G36*
X51131Y-43587D02*
X47331Y-43587D01*
X46829Y-43085D01*
X46894Y-43082D01*
X47060Y-43013D01*
X47093Y-42914D01*
X46785Y-42606D01*
X46750Y-42571D01*
X46679Y-42500D01*
X46750Y-42429D01*
X46821Y-42500D01*
X46856Y-42535D01*
X47164Y-42843D01*
X47234Y-42819D01*
X47242Y-42839D01*
X47411Y-43008D01*
X47631Y-43099D01*
X47869Y-43099D01*
X48089Y-43008D01*
X48250Y-42847D01*
X48411Y-43008D01*
X48631Y-43099D01*
X48869Y-43099D01*
X49089Y-43008D01*
X49258Y-42839D01*
X49349Y-42619D01*
X49349Y-42381D01*
X49311Y-42290D01*
X49657Y-42290D01*
X49737Y-42274D01*
X49818Y-42274D01*
X51131Y-43587D01*
X51131Y-43587D01*
G37*
G54D27*
X51131Y-43587D02*
X47331Y-43587D01*
X46829Y-43085D01*
X46894Y-43082D01*
X47060Y-43013D01*
X47093Y-42914D01*
X46785Y-42606D01*
X46750Y-42571D01*
X46679Y-42500D01*
X46750Y-42429D01*
X46821Y-42500D01*
X46856Y-42535D01*
X47164Y-42843D01*
X47234Y-42819D01*
X47242Y-42839D01*
X47411Y-43008D01*
X47631Y-43099D01*
X47869Y-43099D01*
X48089Y-43008D01*
X48250Y-42847D01*
X48411Y-43008D01*
X48631Y-43099D01*
X48869Y-43099D01*
X49089Y-43008D01*
X49258Y-42839D01*
X49349Y-42619D01*
X49349Y-42381D01*
X49311Y-42290D01*
X49657Y-42290D01*
X49737Y-42274D01*
X49818Y-42274D01*
X51131Y-43587D01*
G54D10*
G36*
X87950Y-46450D02*
X87900Y-46450D01*
X87900Y-45680D01*
X87900Y-45322D01*
X87900Y-14680D01*
X87900Y-14322D01*
X87763Y-13991D01*
X87511Y-13738D01*
X87180Y-13600D01*
X86822Y-13600D01*
X86491Y-13737D01*
X86238Y-13989D01*
X86100Y-14320D01*
X86100Y-14678D01*
X86237Y-15009D01*
X86489Y-15262D01*
X86820Y-15400D01*
X87178Y-15400D01*
X87509Y-15263D01*
X87762Y-15011D01*
X87900Y-14680D01*
X87900Y-45322D01*
X87763Y-44991D01*
X87511Y-44738D01*
X87180Y-44600D01*
X86822Y-44600D01*
X86491Y-44737D01*
X86238Y-44989D01*
X86100Y-45320D01*
X86100Y-45678D01*
X86237Y-46009D01*
X86489Y-46262D01*
X86820Y-46400D01*
X87178Y-46400D01*
X87509Y-46263D01*
X87762Y-46011D01*
X87900Y-45680D01*
X87900Y-46450D01*
X32900Y-46450D01*
X32900Y-45680D01*
X32900Y-45322D01*
X32763Y-44991D01*
X32511Y-44738D01*
X32180Y-44600D01*
X31822Y-44600D01*
X31491Y-44737D01*
X31238Y-44989D01*
X31100Y-45320D01*
X31100Y-45678D01*
X31237Y-46009D01*
X31489Y-46262D01*
X31820Y-46400D01*
X32178Y-46400D01*
X32509Y-46263D01*
X32762Y-46011D01*
X32900Y-45680D01*
X32900Y-46450D01*
X31050Y-46450D01*
X31050Y-36694D01*
X31118Y-36694D01*
X31336Y-36604D01*
X31500Y-36440D01*
X31663Y-36603D01*
X31882Y-36694D01*
X32118Y-36694D01*
X32336Y-36604D01*
X32500Y-36440D01*
X32663Y-36603D01*
X32882Y-36694D01*
X33118Y-36694D01*
X33210Y-36656D01*
X33210Y-40750D01*
X33232Y-40861D01*
X33295Y-40955D01*
X33671Y-41331D01*
X33651Y-41381D01*
X33651Y-41619D01*
X33742Y-41839D01*
X33817Y-41914D01*
X33759Y-41939D01*
X33689Y-42009D01*
X33651Y-42100D01*
X33651Y-42199D01*
X33651Y-42899D01*
X33689Y-42991D01*
X33759Y-43061D01*
X33850Y-43099D01*
X33949Y-43099D01*
X34649Y-43099D01*
X34741Y-43061D01*
X34811Y-42991D01*
X34835Y-42932D01*
X34911Y-43008D01*
X35131Y-43099D01*
X35369Y-43099D01*
X35466Y-43058D01*
X35466Y-43210D01*
X35488Y-43321D01*
X35551Y-43415D01*
X36226Y-44090D01*
X36320Y-44153D01*
X36431Y-44175D01*
X44854Y-44175D01*
X44965Y-44153D01*
X45059Y-44090D01*
X45299Y-43850D01*
X45853Y-44404D01*
X45854Y-44405D01*
X45947Y-44467D01*
X45948Y-44468D01*
X46058Y-44489D01*
X46059Y-44490D01*
X57818Y-44490D01*
X57929Y-44468D01*
X58023Y-44405D01*
X58383Y-44044D01*
X58394Y-44069D01*
X58514Y-44189D01*
X58670Y-44254D01*
X58839Y-44254D01*
X58995Y-44190D01*
X59019Y-44166D01*
X60381Y-44166D01*
X60381Y-44165D01*
X60515Y-44139D01*
X60628Y-44063D01*
X61694Y-42996D01*
X61759Y-43061D01*
X61850Y-43099D01*
X61909Y-43099D01*
X61927Y-43187D01*
X62003Y-43300D01*
X62773Y-44071D01*
X62774Y-44071D01*
X62887Y-44147D01*
X63021Y-44174D01*
X69373Y-44174D01*
X69373Y-44173D01*
X69507Y-44147D01*
X69620Y-44071D01*
X70694Y-42996D01*
X70759Y-43061D01*
X70850Y-43099D01*
X70949Y-43099D01*
X71354Y-43099D01*
X71872Y-43617D01*
X71873Y-43617D01*
X71986Y-43693D01*
X72120Y-43720D01*
X78158Y-43720D01*
X78158Y-43719D01*
X78292Y-43693D01*
X78405Y-43617D01*
X78618Y-43404D01*
X82043Y-43404D01*
X82043Y-43403D01*
X82177Y-43377D01*
X82290Y-43301D01*
X86247Y-39345D01*
X86247Y-39344D01*
X86323Y-39231D01*
X86349Y-39097D01*
X86350Y-39097D01*
X86350Y-38048D01*
X86441Y-38011D01*
X86511Y-37941D01*
X86549Y-37850D01*
X86549Y-37751D01*
X86549Y-37151D01*
X86549Y-35609D01*
X86549Y-35391D01*
X86465Y-35189D01*
X86311Y-35035D01*
X86226Y-35000D01*
X86311Y-34965D01*
X86465Y-34811D01*
X86549Y-34609D01*
X86549Y-34391D01*
X86465Y-34189D01*
X86311Y-34035D01*
X86109Y-33951D01*
X85891Y-33951D01*
X85689Y-34035D01*
X85535Y-34189D01*
X85451Y-34391D01*
X85451Y-34609D01*
X85535Y-34811D01*
X85689Y-34965D01*
X85773Y-35000D01*
X85689Y-35035D01*
X85535Y-35189D01*
X85451Y-35391D01*
X85451Y-35609D01*
X85535Y-35811D01*
X85689Y-35965D01*
X85780Y-36002D01*
X85719Y-36028D01*
X85692Y-36122D01*
X86000Y-36429D01*
X86308Y-36122D01*
X86281Y-36028D01*
X86215Y-36004D01*
X86311Y-35965D01*
X86465Y-35811D01*
X86549Y-35609D01*
X86549Y-37151D01*
X86543Y-37136D01*
X86543Y-36579D01*
X86532Y-36366D01*
X86472Y-36219D01*
X86378Y-36192D01*
X86071Y-36500D01*
X86378Y-36808D01*
X86472Y-36781D01*
X86543Y-36579D01*
X86543Y-37136D01*
X86511Y-37059D01*
X86441Y-36989D01*
X86350Y-36951D01*
X86287Y-36951D01*
X86308Y-36878D01*
X86000Y-36571D01*
X85929Y-36641D01*
X85929Y-36500D01*
X85622Y-36192D01*
X85528Y-36219D01*
X85457Y-36421D01*
X85468Y-36634D01*
X85528Y-36781D01*
X85622Y-36808D01*
X85929Y-36500D01*
X85929Y-36641D01*
X85692Y-36878D01*
X85712Y-36951D01*
X85651Y-36951D01*
X85559Y-36989D01*
X85489Y-37059D01*
X85451Y-37150D01*
X85451Y-37249D01*
X85451Y-37849D01*
X85489Y-37941D01*
X85559Y-38011D01*
X85650Y-38049D01*
X85650Y-38952D01*
X83580Y-41022D01*
X83580Y-37460D01*
X83580Y-37042D01*
X83580Y-17775D01*
X83580Y-17357D01*
X83420Y-16971D01*
X83125Y-16675D01*
X82740Y-16515D01*
X82322Y-16515D01*
X81936Y-16675D01*
X81640Y-16970D01*
X81480Y-17355D01*
X81480Y-17773D01*
X81640Y-18159D01*
X81935Y-18455D01*
X82320Y-18615D01*
X82738Y-18615D01*
X83124Y-18455D01*
X83420Y-18160D01*
X83580Y-17775D01*
X83580Y-37042D01*
X83420Y-36656D01*
X83125Y-36360D01*
X82740Y-36200D01*
X82322Y-36200D01*
X81936Y-36360D01*
X81640Y-36655D01*
X81480Y-37040D01*
X81480Y-37458D01*
X81640Y-37844D01*
X81935Y-38140D01*
X82320Y-38300D01*
X82738Y-38300D01*
X83124Y-38140D01*
X83420Y-37845D01*
X83580Y-37460D01*
X83580Y-41022D01*
X82307Y-42295D01*
X82263Y-42190D01*
X82164Y-42157D01*
X81856Y-42465D01*
X81821Y-42500D01*
X81750Y-42571D01*
X81679Y-42500D01*
X81644Y-42465D01*
X81336Y-42157D01*
X81265Y-42180D01*
X81258Y-42161D01*
X81097Y-42000D01*
X81250Y-41847D01*
X81411Y-42008D01*
X81430Y-42015D01*
X81407Y-42086D01*
X81750Y-42429D01*
X82093Y-42086D01*
X82069Y-42015D01*
X82089Y-42008D01*
X82258Y-41839D01*
X82349Y-41619D01*
X82349Y-41381D01*
X82258Y-41161D01*
X82089Y-40992D01*
X81869Y-40901D01*
X81631Y-40901D01*
X81411Y-40992D01*
X81250Y-41153D01*
X81089Y-40992D01*
X80869Y-40901D01*
X80631Y-40901D01*
X80411Y-40992D01*
X80250Y-41153D01*
X80089Y-40992D01*
X79869Y-40901D01*
X79631Y-40901D01*
X79411Y-40992D01*
X79250Y-41153D01*
X79089Y-40992D01*
X78869Y-40901D01*
X78631Y-40901D01*
X78411Y-40992D01*
X78242Y-41161D01*
X78151Y-41381D01*
X78151Y-41619D01*
X78242Y-41839D01*
X78317Y-41914D01*
X78259Y-41939D01*
X78189Y-42009D01*
X78151Y-42100D01*
X78151Y-42199D01*
X78151Y-42366D01*
X78124Y-42500D01*
X78124Y-42909D01*
X78013Y-43020D01*
X75085Y-43020D01*
X75085Y-42899D01*
X75021Y-42743D01*
X74901Y-42623D01*
X74840Y-42597D01*
X74843Y-42591D01*
X74832Y-42356D01*
X74763Y-42190D01*
X74664Y-42157D01*
X74356Y-42465D01*
X74321Y-42500D01*
X74250Y-42571D01*
X74179Y-42500D01*
X74144Y-42465D01*
X73836Y-42157D01*
X73765Y-42180D01*
X73758Y-42161D01*
X73597Y-42000D01*
X73750Y-41847D01*
X73911Y-42008D01*
X73930Y-42015D01*
X73907Y-42086D01*
X74250Y-42429D01*
X74593Y-42086D01*
X74569Y-42015D01*
X74589Y-42008D01*
X74758Y-41839D01*
X74849Y-41619D01*
X74849Y-41381D01*
X74758Y-41161D01*
X74589Y-40992D01*
X74369Y-40901D01*
X74131Y-40901D01*
X73911Y-40992D01*
X73750Y-41153D01*
X73589Y-40992D01*
X73369Y-40901D01*
X73131Y-40901D01*
X72911Y-40992D01*
X72750Y-41153D01*
X72589Y-40992D01*
X72369Y-40901D01*
X72131Y-40901D01*
X71911Y-40992D01*
X71750Y-41153D01*
X71589Y-40992D01*
X71369Y-40901D01*
X71131Y-40901D01*
X70911Y-40992D01*
X70742Y-41161D01*
X70651Y-41381D01*
X70651Y-41619D01*
X70742Y-41839D01*
X70817Y-41914D01*
X70759Y-41939D01*
X70689Y-42009D01*
X70651Y-42100D01*
X70651Y-42159D01*
X70563Y-42177D01*
X70449Y-42253D01*
X69228Y-43474D01*
X65843Y-43474D01*
X65843Y-42591D01*
X65832Y-42356D01*
X65763Y-42190D01*
X65664Y-42157D01*
X65321Y-42500D01*
X65664Y-42843D01*
X65763Y-42810D01*
X65843Y-42591D01*
X65843Y-43474D01*
X65608Y-43474D01*
X65608Y-43349D01*
X65544Y-43193D01*
X65424Y-43073D01*
X65419Y-43071D01*
X65560Y-43013D01*
X65593Y-42914D01*
X65285Y-42606D01*
X65250Y-42571D01*
X65179Y-42500D01*
X65250Y-42429D01*
X65285Y-42394D01*
X65593Y-42086D01*
X65569Y-42015D01*
X65589Y-42008D01*
X65758Y-41839D01*
X65849Y-41619D01*
X65849Y-41381D01*
X65758Y-41161D01*
X65589Y-40992D01*
X65369Y-40901D01*
X65131Y-40901D01*
X64911Y-40992D01*
X64750Y-41153D01*
X64589Y-40992D01*
X64369Y-40901D01*
X64131Y-40901D01*
X63911Y-40992D01*
X63750Y-41153D01*
X63589Y-40992D01*
X63369Y-40901D01*
X63131Y-40901D01*
X62911Y-40992D01*
X62750Y-41153D01*
X62589Y-40992D01*
X62369Y-40901D01*
X62131Y-40901D01*
X61911Y-40992D01*
X61742Y-41161D01*
X61651Y-41381D01*
X61651Y-41619D01*
X61691Y-41716D01*
X60012Y-41716D01*
X59901Y-41738D01*
X59869Y-41759D01*
X59806Y-41801D01*
X58343Y-43264D01*
X58343Y-42591D01*
X58332Y-42356D01*
X58263Y-42190D01*
X58164Y-42157D01*
X57821Y-42500D01*
X58164Y-42843D01*
X58263Y-42810D01*
X58343Y-42591D01*
X58343Y-43264D01*
X58243Y-43364D01*
X58243Y-43357D01*
X58179Y-43201D01*
X58059Y-43081D01*
X57977Y-43047D01*
X58060Y-43013D01*
X58093Y-42914D01*
X57750Y-42571D01*
X57407Y-42914D01*
X57440Y-43013D01*
X57554Y-43055D01*
X57100Y-43055D01*
X57100Y-42997D01*
X57258Y-42839D01*
X57265Y-42819D01*
X57336Y-42843D01*
X57644Y-42535D01*
X57679Y-42500D01*
X57750Y-42429D01*
X57785Y-42394D01*
X58093Y-42086D01*
X58069Y-42015D01*
X58089Y-42008D01*
X58258Y-41839D01*
X58349Y-41619D01*
X58349Y-41381D01*
X58328Y-41331D01*
X59680Y-39980D01*
X78081Y-39980D01*
X78151Y-40050D01*
X78307Y-40115D01*
X78476Y-40115D01*
X78632Y-40051D01*
X78752Y-39931D01*
X78817Y-39775D01*
X78817Y-39606D01*
X78753Y-39450D01*
X78633Y-39330D01*
X78477Y-39265D01*
X78308Y-39265D01*
X78152Y-39329D01*
X78081Y-39400D01*
X59560Y-39400D01*
X59449Y-39422D01*
X59417Y-39443D01*
X59354Y-39485D01*
X57918Y-40921D01*
X57869Y-40901D01*
X57631Y-40901D01*
X57411Y-40992D01*
X57250Y-41153D01*
X57089Y-40992D01*
X56869Y-40901D01*
X56631Y-40901D01*
X56411Y-40992D01*
X56250Y-41153D01*
X56089Y-40992D01*
X56040Y-40971D01*
X56040Y-39459D01*
X56018Y-39348D01*
X55955Y-39254D01*
X55001Y-38300D01*
X55178Y-38300D01*
X55564Y-38140D01*
X55860Y-37845D01*
X56020Y-37460D01*
X56020Y-37042D01*
X56020Y-17775D01*
X56020Y-17357D01*
X55860Y-16971D01*
X55565Y-16675D01*
X55180Y-16515D01*
X54762Y-16515D01*
X54376Y-16675D01*
X54080Y-16970D01*
X53920Y-17355D01*
X53920Y-17773D01*
X54080Y-18159D01*
X54375Y-18455D01*
X54760Y-18615D01*
X55178Y-18615D01*
X55564Y-18455D01*
X55860Y-18160D01*
X56020Y-17775D01*
X56020Y-37042D01*
X55860Y-36656D01*
X55565Y-36360D01*
X55180Y-36200D01*
X54762Y-36200D01*
X54376Y-36360D01*
X54080Y-36655D01*
X53920Y-37040D01*
X53920Y-37219D01*
X51547Y-34846D01*
X51547Y-34827D01*
X51525Y-34716D01*
X51462Y-34622D01*
X50536Y-33696D01*
X50442Y-33633D01*
X50331Y-33611D01*
X50099Y-33611D01*
X49988Y-33633D01*
X49894Y-33696D01*
X49112Y-34477D01*
X49105Y-34475D01*
X48896Y-34475D01*
X48847Y-34495D01*
X48847Y-27649D01*
X49048Y-27649D01*
X49323Y-27535D01*
X49534Y-27325D01*
X49649Y-27050D01*
X49649Y-26752D01*
X49639Y-26727D01*
X49639Y-25027D01*
X49631Y-24735D01*
X49534Y-24500D01*
X49420Y-24450D01*
X49350Y-24520D01*
X49350Y-24380D01*
X49300Y-24266D01*
X49027Y-24161D01*
X48735Y-24169D01*
X48520Y-24257D01*
X48520Y-15770D01*
X48520Y-15352D01*
X48360Y-14966D01*
X48065Y-14670D01*
X47680Y-14510D01*
X47262Y-14510D01*
X46876Y-14670D01*
X46580Y-14965D01*
X46420Y-15350D01*
X46420Y-15768D01*
X46580Y-16154D01*
X46875Y-16450D01*
X47260Y-16610D01*
X47678Y-16610D01*
X48064Y-16450D01*
X48360Y-16155D01*
X48520Y-15770D01*
X48520Y-24257D01*
X48500Y-24266D01*
X48450Y-24380D01*
X48900Y-24829D01*
X49350Y-24380D01*
X49350Y-24520D01*
X48971Y-24900D01*
X49420Y-25350D01*
X49534Y-25300D01*
X49639Y-25027D01*
X49639Y-26727D01*
X49535Y-26477D01*
X49350Y-26291D01*
X49350Y-25420D01*
X48900Y-24971D01*
X48829Y-25041D01*
X48829Y-24900D01*
X48380Y-24450D01*
X48266Y-24500D01*
X48161Y-24773D01*
X48169Y-25065D01*
X48266Y-25300D01*
X48380Y-25350D01*
X48829Y-24900D01*
X48829Y-25041D01*
X48450Y-25420D01*
X48500Y-25534D01*
X48773Y-25639D01*
X49065Y-25631D01*
X49300Y-25534D01*
X49350Y-25420D01*
X49350Y-26291D01*
X49325Y-26266D01*
X49050Y-26151D01*
X48752Y-26151D01*
X48477Y-26265D01*
X48266Y-26475D01*
X48235Y-26546D01*
X47447Y-25758D01*
X47447Y-19608D01*
X47438Y-19344D01*
X47354Y-19145D01*
X47247Y-19104D01*
X47176Y-19175D01*
X47176Y-19033D01*
X47135Y-18926D01*
X46888Y-18833D01*
X46624Y-18842D01*
X46425Y-18926D01*
X46384Y-19033D01*
X46780Y-19429D01*
X47176Y-19033D01*
X47176Y-19175D01*
X46851Y-19500D01*
X47247Y-19896D01*
X47354Y-19855D01*
X47447Y-19608D01*
X47447Y-25758D01*
X47176Y-25487D01*
X47176Y-19967D01*
X46780Y-19571D01*
X46709Y-19642D01*
X46709Y-19500D01*
X46313Y-19104D01*
X46206Y-19145D01*
X46113Y-19392D01*
X46122Y-19656D01*
X46206Y-19855D01*
X46313Y-19896D01*
X46709Y-19500D01*
X46709Y-19642D01*
X46384Y-19967D01*
X46425Y-20074D01*
X46672Y-20167D01*
X46936Y-20158D01*
X47135Y-20074D01*
X47176Y-19967D01*
X47176Y-25487D01*
X45975Y-24286D01*
X45975Y-19635D01*
X45975Y-19366D01*
X45872Y-19118D01*
X45683Y-18928D01*
X45435Y-18825D01*
X45166Y-18825D01*
X44918Y-18928D01*
X44728Y-19117D01*
X44625Y-19365D01*
X44625Y-19634D01*
X44728Y-19882D01*
X44917Y-20072D01*
X45165Y-20175D01*
X45434Y-20175D01*
X45682Y-20072D01*
X45872Y-19883D01*
X45975Y-19635D01*
X45975Y-24286D01*
X44495Y-22806D01*
X44495Y-19635D01*
X44495Y-19366D01*
X44392Y-19118D01*
X44203Y-18928D01*
X44180Y-18918D01*
X44180Y-15770D01*
X44180Y-15352D01*
X44020Y-14966D01*
X43725Y-14670D01*
X43340Y-14510D01*
X42922Y-14510D01*
X42536Y-14670D01*
X42240Y-14965D01*
X42080Y-15350D01*
X42080Y-15768D01*
X42240Y-16154D01*
X42535Y-16450D01*
X42920Y-16610D01*
X43338Y-16610D01*
X43724Y-16450D01*
X44020Y-16155D01*
X44180Y-15770D01*
X44180Y-18918D01*
X43955Y-18825D01*
X43686Y-18825D01*
X43438Y-18928D01*
X43248Y-19117D01*
X43145Y-19365D01*
X43145Y-19634D01*
X43248Y-19882D01*
X43437Y-20072D01*
X43685Y-20175D01*
X43954Y-20175D01*
X44202Y-20072D01*
X44392Y-19883D01*
X44495Y-19635D01*
X44495Y-22806D01*
X40441Y-18753D01*
X40328Y-18677D01*
X40194Y-18650D01*
X37207Y-18650D01*
X37060Y-18293D01*
X36709Y-17941D01*
X36250Y-17751D01*
X35753Y-17750D01*
X35293Y-17940D01*
X34941Y-18291D01*
X34755Y-18738D01*
X34600Y-18363D01*
X34445Y-18264D01*
X34374Y-18335D01*
X34374Y-18193D01*
X34275Y-18038D01*
X33859Y-17867D01*
X33408Y-17869D01*
X33001Y-18038D01*
X32902Y-18193D01*
X33638Y-18929D01*
X34374Y-18193D01*
X34374Y-18335D01*
X33709Y-19000D01*
X34445Y-19736D01*
X34600Y-19637D01*
X34755Y-19259D01*
X34940Y-19707D01*
X35291Y-20059D01*
X35750Y-20249D01*
X36247Y-20250D01*
X36707Y-20060D01*
X37059Y-19709D01*
X37207Y-19350D01*
X40049Y-19350D01*
X48147Y-27447D01*
X48147Y-36120D01*
X48174Y-36254D01*
X48250Y-36367D01*
X49170Y-37287D01*
X49170Y-37501D01*
X49105Y-37475D01*
X48969Y-37475D01*
X46843Y-35348D01*
X46843Y-29466D01*
X46816Y-29332D01*
X46740Y-29219D01*
X46740Y-29218D01*
X42674Y-25153D01*
X42561Y-25077D01*
X42427Y-25050D01*
X42306Y-25050D01*
X42325Y-25005D01*
X42325Y-24796D01*
X42245Y-24603D01*
X42098Y-24455D01*
X41905Y-24375D01*
X41696Y-24375D01*
X41503Y-24455D01*
X41355Y-24602D01*
X41275Y-24795D01*
X41275Y-25004D01*
X41294Y-25050D01*
X40444Y-25050D01*
X38849Y-23454D01*
X38849Y-23291D01*
X38765Y-23089D01*
X38611Y-22935D01*
X38409Y-22851D01*
X38191Y-22851D01*
X37989Y-22935D01*
X37835Y-23089D01*
X37751Y-23291D01*
X37751Y-23509D01*
X37835Y-23711D01*
X37989Y-23865D01*
X38191Y-23949D01*
X38354Y-23949D01*
X40052Y-25647D01*
X40053Y-25647D01*
X40166Y-25723D01*
X40300Y-25750D01*
X41307Y-25750D01*
X41281Y-25826D01*
X41292Y-26030D01*
X41348Y-26167D01*
X41439Y-26190D01*
X41694Y-25935D01*
X41729Y-25900D01*
X41800Y-25829D01*
X41871Y-25900D01*
X41906Y-25935D01*
X42161Y-26190D01*
X42252Y-26167D01*
X42319Y-25974D01*
X42308Y-25775D01*
X46143Y-29610D01*
X46143Y-35493D01*
X46170Y-35627D01*
X46246Y-35740D01*
X48475Y-37969D01*
X48475Y-38104D01*
X48491Y-38144D01*
X47310Y-38144D01*
X46481Y-37315D01*
X45932Y-36766D01*
X45932Y-36682D01*
X45905Y-36548D01*
X45829Y-36435D01*
X45829Y-36434D01*
X45594Y-36199D01*
X45594Y-35982D01*
X45549Y-35873D01*
X45549Y-30495D01*
X45549Y-30396D01*
X45549Y-29706D01*
X45511Y-29614D01*
X45441Y-29544D01*
X45350Y-29506D01*
X45251Y-29506D01*
X44651Y-29506D01*
X44559Y-29544D01*
X44489Y-29614D01*
X44451Y-29705D01*
X44451Y-29711D01*
X44337Y-29597D01*
X44118Y-29506D01*
X43882Y-29506D01*
X43664Y-29596D01*
X43500Y-29760D01*
X43337Y-29597D01*
X43118Y-29506D01*
X42882Y-29506D01*
X42664Y-29596D01*
X42497Y-29763D01*
X42487Y-29785D01*
X42410Y-29761D01*
X42071Y-30100D01*
X42410Y-30439D01*
X42487Y-30414D01*
X42496Y-30436D01*
X42663Y-30603D01*
X42882Y-30694D01*
X43118Y-30694D01*
X43336Y-30604D01*
X43500Y-30440D01*
X43663Y-30603D01*
X43882Y-30694D01*
X44118Y-30694D01*
X44336Y-30604D01*
X44451Y-30489D01*
X44451Y-30494D01*
X44489Y-30586D01*
X44559Y-30656D01*
X44650Y-30694D01*
X44749Y-30694D01*
X45349Y-30694D01*
X45441Y-30656D01*
X45511Y-30586D01*
X45549Y-30495D01*
X45549Y-35873D01*
X45504Y-35764D01*
X45337Y-35597D01*
X45118Y-35506D01*
X44882Y-35506D01*
X44664Y-35596D01*
X44497Y-35763D01*
X44487Y-35785D01*
X44410Y-35761D01*
X44339Y-35832D01*
X44339Y-35690D01*
X44308Y-35592D01*
X44090Y-35512D01*
X43858Y-35522D01*
X43692Y-35592D01*
X43661Y-35690D01*
X44000Y-36029D01*
X44339Y-35690D01*
X44339Y-35832D01*
X44071Y-36100D01*
X44410Y-36439D01*
X44487Y-36414D01*
X44496Y-36436D01*
X44663Y-36603D01*
X44882Y-36694D01*
X45099Y-36694D01*
X45232Y-36826D01*
X45232Y-36911D01*
X45259Y-37045D01*
X45335Y-37158D01*
X45738Y-37562D01*
X42928Y-40374D01*
X42852Y-40487D01*
X42825Y-40621D01*
X42825Y-41925D01*
X42852Y-42059D01*
X42928Y-42172D01*
X43151Y-42395D01*
X43151Y-42469D01*
X42801Y-42119D01*
X42801Y-39620D01*
X43996Y-38425D01*
X44011Y-38425D01*
X44167Y-38361D01*
X44287Y-38241D01*
X44352Y-38085D01*
X44352Y-37916D01*
X44339Y-37884D01*
X44339Y-36510D01*
X44000Y-36171D01*
X43661Y-36510D01*
X43692Y-36608D01*
X43910Y-36688D01*
X44142Y-36678D01*
X44308Y-36608D01*
X44339Y-36510D01*
X44339Y-37884D01*
X44288Y-37760D01*
X44168Y-37640D01*
X44012Y-37575D01*
X43843Y-37575D01*
X43687Y-37639D01*
X43567Y-37759D01*
X43502Y-37915D01*
X43502Y-37930D01*
X42204Y-39229D01*
X42128Y-39342D01*
X42101Y-39476D01*
X42101Y-41930D01*
X42049Y-41941D01*
X41935Y-42017D01*
X41324Y-42628D01*
X41310Y-42628D01*
X41154Y-42692D01*
X41034Y-42812D01*
X40969Y-42968D01*
X40969Y-43137D01*
X41017Y-43254D01*
X39831Y-43254D01*
X39843Y-43246D01*
X40290Y-42799D01*
X40353Y-42705D01*
X40375Y-42594D01*
X40375Y-39807D01*
X40428Y-39807D01*
X40584Y-39743D01*
X40704Y-39623D01*
X40769Y-39467D01*
X40769Y-39340D01*
X40779Y-39326D01*
X40801Y-39215D01*
X40801Y-36660D01*
X40882Y-36694D01*
X41118Y-36694D01*
X41336Y-36604D01*
X41500Y-36440D01*
X41663Y-36603D01*
X41882Y-36694D01*
X42118Y-36694D01*
X42336Y-36604D01*
X42500Y-36440D01*
X42663Y-36603D01*
X42882Y-36694D01*
X43118Y-36694D01*
X43336Y-36604D01*
X43503Y-36437D01*
X43512Y-36414D01*
X43590Y-36439D01*
X43929Y-36100D01*
X43590Y-35761D01*
X43512Y-35785D01*
X43504Y-35764D01*
X43337Y-35597D01*
X43118Y-35506D01*
X42882Y-35506D01*
X42664Y-35596D01*
X42500Y-35760D01*
X42337Y-35597D01*
X42118Y-35506D01*
X41882Y-35506D01*
X41790Y-35543D01*
X41790Y-30643D01*
X41910Y-30688D01*
X42142Y-30678D01*
X42308Y-30608D01*
X42339Y-30510D01*
X42035Y-30206D01*
X42000Y-30171D01*
X41929Y-30100D01*
X42000Y-30029D01*
X42035Y-29994D01*
X42339Y-29690D01*
X42308Y-29592D01*
X42090Y-29512D01*
X42090Y-26261D01*
X41800Y-25971D01*
X41510Y-26261D01*
X41533Y-26352D01*
X41726Y-26419D01*
X41930Y-26408D01*
X42067Y-26352D01*
X42090Y-26261D01*
X42090Y-29512D01*
X41858Y-29522D01*
X41790Y-29550D01*
X41790Y-27186D01*
X41789Y-27185D01*
X41768Y-27075D01*
X41767Y-27074D01*
X41746Y-27043D01*
X41705Y-26981D01*
X41705Y-26980D01*
X41025Y-26300D01*
X41025Y-26202D01*
X40961Y-26046D01*
X40841Y-25926D01*
X40685Y-25861D01*
X40516Y-25861D01*
X40360Y-25925D01*
X40240Y-26045D01*
X40175Y-26201D01*
X40175Y-26370D01*
X40239Y-26526D01*
X40359Y-26646D01*
X40515Y-26711D01*
X40614Y-26711D01*
X41210Y-27306D01*
X41210Y-29544D01*
X41118Y-29506D01*
X40882Y-29506D01*
X40664Y-29596D01*
X40500Y-29760D01*
X40337Y-29597D01*
X40118Y-29506D01*
X39882Y-29506D01*
X39664Y-29596D01*
X39500Y-29760D01*
X39337Y-29597D01*
X39118Y-29506D01*
X38882Y-29506D01*
X38849Y-29519D01*
X38849Y-27509D01*
X38849Y-27291D01*
X38765Y-27089D01*
X38611Y-26935D01*
X38409Y-26851D01*
X38191Y-26851D01*
X38169Y-26859D01*
X36255Y-24945D01*
X36161Y-24882D01*
X36050Y-24860D01*
X35807Y-24860D01*
X35849Y-24759D01*
X35849Y-24541D01*
X35765Y-24339D01*
X35611Y-24185D01*
X35409Y-24101D01*
X35191Y-24101D01*
X34989Y-24185D01*
X34835Y-24339D01*
X34800Y-24423D01*
X34765Y-24339D01*
X34611Y-24185D01*
X34409Y-24101D01*
X34374Y-24101D01*
X34374Y-19807D01*
X33638Y-19071D01*
X33567Y-19142D01*
X33567Y-19000D01*
X32900Y-18333D01*
X32900Y-14680D01*
X32900Y-14322D01*
X32763Y-13991D01*
X32511Y-13738D01*
X32180Y-13600D01*
X31822Y-13600D01*
X31491Y-13737D01*
X31238Y-13989D01*
X31100Y-14320D01*
X31100Y-14678D01*
X31237Y-15009D01*
X31489Y-15262D01*
X31820Y-15400D01*
X32178Y-15400D01*
X32509Y-15263D01*
X32762Y-15011D01*
X32900Y-14680D01*
X32900Y-18333D01*
X32831Y-18264D01*
X32676Y-18363D01*
X32505Y-18779D01*
X32507Y-19230D01*
X32676Y-19637D01*
X32831Y-19736D01*
X33567Y-19000D01*
X33567Y-19142D01*
X32902Y-19807D01*
X33001Y-19962D01*
X33417Y-20133D01*
X33868Y-20131D01*
X34275Y-19962D01*
X34374Y-19807D01*
X34374Y-24101D01*
X34191Y-24101D01*
X33989Y-24185D01*
X33835Y-24339D01*
X33751Y-24541D01*
X33751Y-24759D01*
X33835Y-24961D01*
X33975Y-25101D01*
X33951Y-25101D01*
X33859Y-25139D01*
X33789Y-25209D01*
X33751Y-25300D01*
X33751Y-25399D01*
X33751Y-25999D01*
X33789Y-26091D01*
X33859Y-26161D01*
X33950Y-26199D01*
X34049Y-26199D01*
X34649Y-26199D01*
X34741Y-26161D01*
X34811Y-26091D01*
X34849Y-26000D01*
X34849Y-25975D01*
X34989Y-26115D01*
X35191Y-26199D01*
X35409Y-26199D01*
X35611Y-26115D01*
X35765Y-25961D01*
X35849Y-25759D01*
X35849Y-25541D01*
X35807Y-25440D01*
X35930Y-25440D01*
X37759Y-27269D01*
X37751Y-27291D01*
X37751Y-27509D01*
X37835Y-27711D01*
X37989Y-27865D01*
X38191Y-27949D01*
X38409Y-27949D01*
X38611Y-27865D01*
X38765Y-27711D01*
X38849Y-27509D01*
X38849Y-29519D01*
X38835Y-29525D01*
X38716Y-29406D01*
X38622Y-29343D01*
X38511Y-29321D01*
X37522Y-29321D01*
X37411Y-29343D01*
X37317Y-29406D01*
X37295Y-29428D01*
X37232Y-29522D01*
X37226Y-29550D01*
X37118Y-29506D01*
X36882Y-29506D01*
X36664Y-29596D01*
X36500Y-29760D01*
X36337Y-29597D01*
X36118Y-29506D01*
X35882Y-29506D01*
X35664Y-29596D01*
X35500Y-29760D01*
X35337Y-29597D01*
X35118Y-29506D01*
X34882Y-29506D01*
X34664Y-29596D01*
X34500Y-29760D01*
X34337Y-29597D01*
X34118Y-29506D01*
X33882Y-29506D01*
X33664Y-29596D01*
X33500Y-29760D01*
X33337Y-29597D01*
X33118Y-29506D01*
X32882Y-29506D01*
X32664Y-29596D01*
X32500Y-29760D01*
X32337Y-29597D01*
X32118Y-29506D01*
X31882Y-29506D01*
X31664Y-29596D01*
X31500Y-29760D01*
X31337Y-29597D01*
X31118Y-29506D01*
X31050Y-29506D01*
X31050Y-13550D01*
X87950Y-13550D01*
X87950Y-46450D01*
X87950Y-46450D01*
G37*
G54D27*
X87950Y-46450D02*
X87900Y-46450D01*
X87900Y-45680D01*
X87900Y-45322D01*
X87900Y-14680D01*
X87900Y-14322D01*
X87763Y-13991D01*
X87511Y-13738D01*
X87180Y-13600D01*
X86822Y-13600D01*
X86491Y-13737D01*
X86238Y-13989D01*
X86100Y-14320D01*
X86100Y-14678D01*
X86237Y-15009D01*
X86489Y-15262D01*
X86820Y-15400D01*
X87178Y-15400D01*
X87509Y-15263D01*
X87762Y-15011D01*
X87900Y-14680D01*
X87900Y-45322D01*
X87763Y-44991D01*
X87511Y-44738D01*
X87180Y-44600D01*
X86822Y-44600D01*
X86491Y-44737D01*
X86238Y-44989D01*
X86100Y-45320D01*
X86100Y-45678D01*
X86237Y-46009D01*
X86489Y-46262D01*
X86820Y-46400D01*
X87178Y-46400D01*
X87509Y-46263D01*
X87762Y-46011D01*
X87900Y-45680D01*
X87900Y-46450D01*
X32900Y-46450D01*
X32900Y-45680D01*
X32900Y-45322D01*
X32763Y-44991D01*
X32511Y-44738D01*
X32180Y-44600D01*
X31822Y-44600D01*
X31491Y-44737D01*
X31238Y-44989D01*
X31100Y-45320D01*
X31100Y-45678D01*
X31237Y-46009D01*
X31489Y-46262D01*
X31820Y-46400D01*
X32178Y-46400D01*
X32509Y-46263D01*
X32762Y-46011D01*
X32900Y-45680D01*
X32900Y-46450D01*
X31050Y-46450D01*
X31050Y-36694D01*
X31118Y-36694D01*
X31336Y-36604D01*
X31500Y-36440D01*
X31663Y-36603D01*
X31882Y-36694D01*
X32118Y-36694D01*
X32336Y-36604D01*
X32500Y-36440D01*
X32663Y-36603D01*
X32882Y-36694D01*
X33118Y-36694D01*
X33210Y-36656D01*
X33210Y-40750D01*
X33232Y-40861D01*
X33295Y-40955D01*
X33671Y-41331D01*
X33651Y-41381D01*
X33651Y-41619D01*
X33742Y-41839D01*
X33817Y-41914D01*
X33759Y-41939D01*
X33689Y-42009D01*
X33651Y-42100D01*
X33651Y-42199D01*
X33651Y-42899D01*
X33689Y-42991D01*
X33759Y-43061D01*
X33850Y-43099D01*
X33949Y-43099D01*
X34649Y-43099D01*
X34741Y-43061D01*
X34811Y-42991D01*
X34835Y-42932D01*
X34911Y-43008D01*
X35131Y-43099D01*
X35369Y-43099D01*
X35466Y-43058D01*
X35466Y-43210D01*
X35488Y-43321D01*
X35551Y-43415D01*
X36226Y-44090D01*
X36320Y-44153D01*
X36431Y-44175D01*
X44854Y-44175D01*
X44965Y-44153D01*
X45059Y-44090D01*
X45299Y-43850D01*
X45853Y-44404D01*
X45854Y-44405D01*
X45947Y-44467D01*
X45948Y-44468D01*
X46058Y-44489D01*
X46059Y-44490D01*
X57818Y-44490D01*
X57929Y-44468D01*
X58023Y-44405D01*
X58383Y-44044D01*
X58394Y-44069D01*
X58514Y-44189D01*
X58670Y-44254D01*
X58839Y-44254D01*
X58995Y-44190D01*
X59019Y-44166D01*
X60381Y-44166D01*
X60381Y-44165D01*
X60515Y-44139D01*
X60628Y-44063D01*
X61694Y-42996D01*
X61759Y-43061D01*
X61850Y-43099D01*
X61909Y-43099D01*
X61927Y-43187D01*
X62003Y-43300D01*
X62773Y-44071D01*
X62774Y-44071D01*
X62887Y-44147D01*
X63021Y-44174D01*
X69373Y-44174D01*
X69373Y-44173D01*
X69507Y-44147D01*
X69620Y-44071D01*
X70694Y-42996D01*
X70759Y-43061D01*
X70850Y-43099D01*
X70949Y-43099D01*
X71354Y-43099D01*
X71872Y-43617D01*
X71873Y-43617D01*
X71986Y-43693D01*
X72120Y-43720D01*
X78158Y-43720D01*
X78158Y-43719D01*
X78292Y-43693D01*
X78405Y-43617D01*
X78618Y-43404D01*
X82043Y-43404D01*
X82043Y-43403D01*
X82177Y-43377D01*
X82290Y-43301D01*
X86247Y-39345D01*
X86247Y-39344D01*
X86323Y-39231D01*
X86349Y-39097D01*
X86350Y-39097D01*
X86350Y-38048D01*
X86441Y-38011D01*
X86511Y-37941D01*
X86549Y-37850D01*
X86549Y-37751D01*
X86549Y-37151D01*
X86549Y-35609D01*
X86549Y-35391D01*
X86465Y-35189D01*
X86311Y-35035D01*
X86226Y-35000D01*
X86311Y-34965D01*
X86465Y-34811D01*
X86549Y-34609D01*
X86549Y-34391D01*
X86465Y-34189D01*
X86311Y-34035D01*
X86109Y-33951D01*
X85891Y-33951D01*
X85689Y-34035D01*
X85535Y-34189D01*
X85451Y-34391D01*
X85451Y-34609D01*
X85535Y-34811D01*
X85689Y-34965D01*
X85773Y-35000D01*
X85689Y-35035D01*
X85535Y-35189D01*
X85451Y-35391D01*
X85451Y-35609D01*
X85535Y-35811D01*
X85689Y-35965D01*
X85780Y-36002D01*
X85719Y-36028D01*
X85692Y-36122D01*
X86000Y-36429D01*
X86308Y-36122D01*
X86281Y-36028D01*
X86215Y-36004D01*
X86311Y-35965D01*
X86465Y-35811D01*
X86549Y-35609D01*
X86549Y-37151D01*
X86543Y-37136D01*
X86543Y-36579D01*
X86532Y-36366D01*
X86472Y-36219D01*
X86378Y-36192D01*
X86071Y-36500D01*
X86378Y-36808D01*
X86472Y-36781D01*
X86543Y-36579D01*
X86543Y-37136D01*
X86511Y-37059D01*
X86441Y-36989D01*
X86350Y-36951D01*
X86287Y-36951D01*
X86308Y-36878D01*
X86000Y-36571D01*
X85929Y-36641D01*
X85929Y-36500D01*
X85622Y-36192D01*
X85528Y-36219D01*
X85457Y-36421D01*
X85468Y-36634D01*
X85528Y-36781D01*
X85622Y-36808D01*
X85929Y-36500D01*
X85929Y-36641D01*
X85692Y-36878D01*
X85712Y-36951D01*
X85651Y-36951D01*
X85559Y-36989D01*
X85489Y-37059D01*
X85451Y-37150D01*
X85451Y-37249D01*
X85451Y-37849D01*
X85489Y-37941D01*
X85559Y-38011D01*
X85650Y-38049D01*
X85650Y-38952D01*
X83580Y-41022D01*
X83580Y-37460D01*
X83580Y-37042D01*
X83580Y-17775D01*
X83580Y-17357D01*
X83420Y-16971D01*
X83125Y-16675D01*
X82740Y-16515D01*
X82322Y-16515D01*
X81936Y-16675D01*
X81640Y-16970D01*
X81480Y-17355D01*
X81480Y-17773D01*
X81640Y-18159D01*
X81935Y-18455D01*
X82320Y-18615D01*
X82738Y-18615D01*
X83124Y-18455D01*
X83420Y-18160D01*
X83580Y-17775D01*
X83580Y-37042D01*
X83420Y-36656D01*
X83125Y-36360D01*
X82740Y-36200D01*
X82322Y-36200D01*
X81936Y-36360D01*
X81640Y-36655D01*
X81480Y-37040D01*
X81480Y-37458D01*
X81640Y-37844D01*
X81935Y-38140D01*
X82320Y-38300D01*
X82738Y-38300D01*
X83124Y-38140D01*
X83420Y-37845D01*
X83580Y-37460D01*
X83580Y-41022D01*
X82307Y-42295D01*
X82263Y-42190D01*
X82164Y-42157D01*
X81856Y-42465D01*
X81821Y-42500D01*
X81750Y-42571D01*
X81679Y-42500D01*
X81644Y-42465D01*
X81336Y-42157D01*
X81265Y-42180D01*
X81258Y-42161D01*
X81097Y-42000D01*
X81250Y-41847D01*
X81411Y-42008D01*
X81430Y-42015D01*
X81407Y-42086D01*
X81750Y-42429D01*
X82093Y-42086D01*
X82069Y-42015D01*
X82089Y-42008D01*
X82258Y-41839D01*
X82349Y-41619D01*
X82349Y-41381D01*
X82258Y-41161D01*
X82089Y-40992D01*
X81869Y-40901D01*
X81631Y-40901D01*
X81411Y-40992D01*
X81250Y-41153D01*
X81089Y-40992D01*
X80869Y-40901D01*
X80631Y-40901D01*
X80411Y-40992D01*
X80250Y-41153D01*
X80089Y-40992D01*
X79869Y-40901D01*
X79631Y-40901D01*
X79411Y-40992D01*
X79250Y-41153D01*
X79089Y-40992D01*
X78869Y-40901D01*
X78631Y-40901D01*
X78411Y-40992D01*
X78242Y-41161D01*
X78151Y-41381D01*
X78151Y-41619D01*
X78242Y-41839D01*
X78317Y-41914D01*
X78259Y-41939D01*
X78189Y-42009D01*
X78151Y-42100D01*
X78151Y-42199D01*
X78151Y-42366D01*
X78124Y-42500D01*
X78124Y-42909D01*
X78013Y-43020D01*
X75085Y-43020D01*
X75085Y-42899D01*
X75021Y-42743D01*
X74901Y-42623D01*
X74840Y-42597D01*
X74843Y-42591D01*
X74832Y-42356D01*
X74763Y-42190D01*
X74664Y-42157D01*
X74356Y-42465D01*
X74321Y-42500D01*
X74250Y-42571D01*
X74179Y-42500D01*
X74144Y-42465D01*
X73836Y-42157D01*
X73765Y-42180D01*
X73758Y-42161D01*
X73597Y-42000D01*
X73750Y-41847D01*
X73911Y-42008D01*
X73930Y-42015D01*
X73907Y-42086D01*
X74250Y-42429D01*
X74593Y-42086D01*
X74569Y-42015D01*
X74589Y-42008D01*
X74758Y-41839D01*
X74849Y-41619D01*
X74849Y-41381D01*
X74758Y-41161D01*
X74589Y-40992D01*
X74369Y-40901D01*
X74131Y-40901D01*
X73911Y-40992D01*
X73750Y-41153D01*
X73589Y-40992D01*
X73369Y-40901D01*
X73131Y-40901D01*
X72911Y-40992D01*
X72750Y-41153D01*
X72589Y-40992D01*
X72369Y-40901D01*
X72131Y-40901D01*
X71911Y-40992D01*
X71750Y-41153D01*
X71589Y-40992D01*
X71369Y-40901D01*
X71131Y-40901D01*
X70911Y-40992D01*
X70742Y-41161D01*
X70651Y-41381D01*
X70651Y-41619D01*
X70742Y-41839D01*
X70817Y-41914D01*
X70759Y-41939D01*
X70689Y-42009D01*
X70651Y-42100D01*
X70651Y-42159D01*
X70563Y-42177D01*
X70449Y-42253D01*
X69228Y-43474D01*
X65843Y-43474D01*
X65843Y-42591D01*
X65832Y-42356D01*
X65763Y-42190D01*
X65664Y-42157D01*
X65321Y-42500D01*
X65664Y-42843D01*
X65763Y-42810D01*
X65843Y-42591D01*
X65843Y-43474D01*
X65608Y-43474D01*
X65608Y-43349D01*
X65544Y-43193D01*
X65424Y-43073D01*
X65419Y-43071D01*
X65560Y-43013D01*
X65593Y-42914D01*
X65285Y-42606D01*
X65250Y-42571D01*
X65179Y-42500D01*
X65250Y-42429D01*
X65285Y-42394D01*
X65593Y-42086D01*
X65569Y-42015D01*
X65589Y-42008D01*
X65758Y-41839D01*
X65849Y-41619D01*
X65849Y-41381D01*
X65758Y-41161D01*
X65589Y-40992D01*
X65369Y-40901D01*
X65131Y-40901D01*
X64911Y-40992D01*
X64750Y-41153D01*
X64589Y-40992D01*
X64369Y-40901D01*
X64131Y-40901D01*
X63911Y-40992D01*
X63750Y-41153D01*
X63589Y-40992D01*
X63369Y-40901D01*
X63131Y-40901D01*
X62911Y-40992D01*
X62750Y-41153D01*
X62589Y-40992D01*
X62369Y-40901D01*
X62131Y-40901D01*
X61911Y-40992D01*
X61742Y-41161D01*
X61651Y-41381D01*
X61651Y-41619D01*
X61691Y-41716D01*
X60012Y-41716D01*
X59901Y-41738D01*
X59869Y-41759D01*
X59806Y-41801D01*
X58343Y-43264D01*
X58343Y-42591D01*
X58332Y-42356D01*
X58263Y-42190D01*
X58164Y-42157D01*
X57821Y-42500D01*
X58164Y-42843D01*
X58263Y-42810D01*
X58343Y-42591D01*
X58343Y-43264D01*
X58243Y-43364D01*
X58243Y-43357D01*
X58179Y-43201D01*
X58059Y-43081D01*
X57977Y-43047D01*
X58060Y-43013D01*
X58093Y-42914D01*
X57750Y-42571D01*
X57407Y-42914D01*
X57440Y-43013D01*
X57554Y-43055D01*
X57100Y-43055D01*
X57100Y-42997D01*
X57258Y-42839D01*
X57265Y-42819D01*
X57336Y-42843D01*
X57644Y-42535D01*
X57679Y-42500D01*
X57750Y-42429D01*
X57785Y-42394D01*
X58093Y-42086D01*
X58069Y-42015D01*
X58089Y-42008D01*
X58258Y-41839D01*
X58349Y-41619D01*
X58349Y-41381D01*
X58328Y-41331D01*
X59680Y-39980D01*
X78081Y-39980D01*
X78151Y-40050D01*
X78307Y-40115D01*
X78476Y-40115D01*
X78632Y-40051D01*
X78752Y-39931D01*
X78817Y-39775D01*
X78817Y-39606D01*
X78753Y-39450D01*
X78633Y-39330D01*
X78477Y-39265D01*
X78308Y-39265D01*
X78152Y-39329D01*
X78081Y-39400D01*
X59560Y-39400D01*
X59449Y-39422D01*
X59417Y-39443D01*
X59354Y-39485D01*
X57918Y-40921D01*
X57869Y-40901D01*
X57631Y-40901D01*
X57411Y-40992D01*
X57250Y-41153D01*
X57089Y-40992D01*
X56869Y-40901D01*
X56631Y-40901D01*
X56411Y-40992D01*
X56250Y-41153D01*
X56089Y-40992D01*
X56040Y-40971D01*
X56040Y-39459D01*
X56018Y-39348D01*
X55955Y-39254D01*
X55001Y-38300D01*
X55178Y-38300D01*
X55564Y-38140D01*
X55860Y-37845D01*
X56020Y-37460D01*
X56020Y-37042D01*
X56020Y-17775D01*
X56020Y-17357D01*
X55860Y-16971D01*
X55565Y-16675D01*
X55180Y-16515D01*
X54762Y-16515D01*
X54376Y-16675D01*
X54080Y-16970D01*
X53920Y-17355D01*
X53920Y-17773D01*
X54080Y-18159D01*
X54375Y-18455D01*
X54760Y-18615D01*
X55178Y-18615D01*
X55564Y-18455D01*
X55860Y-18160D01*
X56020Y-17775D01*
X56020Y-37042D01*
X55860Y-36656D01*
X55565Y-36360D01*
X55180Y-36200D01*
X54762Y-36200D01*
X54376Y-36360D01*
X54080Y-36655D01*
X53920Y-37040D01*
X53920Y-37219D01*
X51547Y-34846D01*
X51547Y-34827D01*
X51525Y-34716D01*
X51462Y-34622D01*
X50536Y-33696D01*
X50442Y-33633D01*
X50331Y-33611D01*
X50099Y-33611D01*
X49988Y-33633D01*
X49894Y-33696D01*
X49112Y-34477D01*
X49105Y-34475D01*
X48896Y-34475D01*
X48847Y-34495D01*
X48847Y-27649D01*
X49048Y-27649D01*
X49323Y-27535D01*
X49534Y-27325D01*
X49649Y-27050D01*
X49649Y-26752D01*
X49639Y-26727D01*
X49639Y-25027D01*
X49631Y-24735D01*
X49534Y-24500D01*
X49420Y-24450D01*
X49350Y-24520D01*
X49350Y-24380D01*
X49300Y-24266D01*
X49027Y-24161D01*
X48735Y-24169D01*
X48520Y-24257D01*
X48520Y-15770D01*
X48520Y-15352D01*
X48360Y-14966D01*
X48065Y-14670D01*
X47680Y-14510D01*
X47262Y-14510D01*
X46876Y-14670D01*
X46580Y-14965D01*
X46420Y-15350D01*
X46420Y-15768D01*
X46580Y-16154D01*
X46875Y-16450D01*
X47260Y-16610D01*
X47678Y-16610D01*
X48064Y-16450D01*
X48360Y-16155D01*
X48520Y-15770D01*
X48520Y-24257D01*
X48500Y-24266D01*
X48450Y-24380D01*
X48900Y-24829D01*
X49350Y-24380D01*
X49350Y-24520D01*
X48971Y-24900D01*
X49420Y-25350D01*
X49534Y-25300D01*
X49639Y-25027D01*
X49639Y-26727D01*
X49535Y-26477D01*
X49350Y-26291D01*
X49350Y-25420D01*
X48900Y-24971D01*
X48829Y-25041D01*
X48829Y-24900D01*
X48380Y-24450D01*
X48266Y-24500D01*
X48161Y-24773D01*
X48169Y-25065D01*
X48266Y-25300D01*
X48380Y-25350D01*
X48829Y-24900D01*
X48829Y-25041D01*
X48450Y-25420D01*
X48500Y-25534D01*
X48773Y-25639D01*
X49065Y-25631D01*
X49300Y-25534D01*
X49350Y-25420D01*
X49350Y-26291D01*
X49325Y-26266D01*
X49050Y-26151D01*
X48752Y-26151D01*
X48477Y-26265D01*
X48266Y-26475D01*
X48235Y-26546D01*
X47447Y-25758D01*
X47447Y-19608D01*
X47438Y-19344D01*
X47354Y-19145D01*
X47247Y-19104D01*
X47176Y-19175D01*
X47176Y-19033D01*
X47135Y-18926D01*
X46888Y-18833D01*
X46624Y-18842D01*
X46425Y-18926D01*
X46384Y-19033D01*
X46780Y-19429D01*
X47176Y-19033D01*
X47176Y-19175D01*
X46851Y-19500D01*
X47247Y-19896D01*
X47354Y-19855D01*
X47447Y-19608D01*
X47447Y-25758D01*
X47176Y-25487D01*
X47176Y-19967D01*
X46780Y-19571D01*
X46709Y-19642D01*
X46709Y-19500D01*
X46313Y-19104D01*
X46206Y-19145D01*
X46113Y-19392D01*
X46122Y-19656D01*
X46206Y-19855D01*
X46313Y-19896D01*
X46709Y-19500D01*
X46709Y-19642D01*
X46384Y-19967D01*
X46425Y-20074D01*
X46672Y-20167D01*
X46936Y-20158D01*
X47135Y-20074D01*
X47176Y-19967D01*
X47176Y-25487D01*
X45975Y-24286D01*
X45975Y-19635D01*
X45975Y-19366D01*
X45872Y-19118D01*
X45683Y-18928D01*
X45435Y-18825D01*
X45166Y-18825D01*
X44918Y-18928D01*
X44728Y-19117D01*
X44625Y-19365D01*
X44625Y-19634D01*
X44728Y-19882D01*
X44917Y-20072D01*
X45165Y-20175D01*
X45434Y-20175D01*
X45682Y-20072D01*
X45872Y-19883D01*
X45975Y-19635D01*
X45975Y-24286D01*
X44495Y-22806D01*
X44495Y-19635D01*
X44495Y-19366D01*
X44392Y-19118D01*
X44203Y-18928D01*
X44180Y-18918D01*
X44180Y-15770D01*
X44180Y-15352D01*
X44020Y-14966D01*
X43725Y-14670D01*
X43340Y-14510D01*
X42922Y-14510D01*
X42536Y-14670D01*
X42240Y-14965D01*
X42080Y-15350D01*
X42080Y-15768D01*
X42240Y-16154D01*
X42535Y-16450D01*
X42920Y-16610D01*
X43338Y-16610D01*
X43724Y-16450D01*
X44020Y-16155D01*
X44180Y-15770D01*
X44180Y-18918D01*
X43955Y-18825D01*
X43686Y-18825D01*
X43438Y-18928D01*
X43248Y-19117D01*
X43145Y-19365D01*
X43145Y-19634D01*
X43248Y-19882D01*
X43437Y-20072D01*
X43685Y-20175D01*
X43954Y-20175D01*
X44202Y-20072D01*
X44392Y-19883D01*
X44495Y-19635D01*
X44495Y-22806D01*
X40441Y-18753D01*
X40328Y-18677D01*
X40194Y-18650D01*
X37207Y-18650D01*
X37060Y-18293D01*
X36709Y-17941D01*
X36250Y-17751D01*
X35753Y-17750D01*
X35293Y-17940D01*
X34941Y-18291D01*
X34755Y-18738D01*
X34600Y-18363D01*
X34445Y-18264D01*
X34374Y-18335D01*
X34374Y-18193D01*
X34275Y-18038D01*
X33859Y-17867D01*
X33408Y-17869D01*
X33001Y-18038D01*
X32902Y-18193D01*
X33638Y-18929D01*
X34374Y-18193D01*
X34374Y-18335D01*
X33709Y-19000D01*
X34445Y-19736D01*
X34600Y-19637D01*
X34755Y-19259D01*
X34940Y-19707D01*
X35291Y-20059D01*
X35750Y-20249D01*
X36247Y-20250D01*
X36707Y-20060D01*
X37059Y-19709D01*
X37207Y-19350D01*
X40049Y-19350D01*
X48147Y-27447D01*
X48147Y-36120D01*
X48174Y-36254D01*
X48250Y-36367D01*
X49170Y-37287D01*
X49170Y-37501D01*
X49105Y-37475D01*
X48969Y-37475D01*
X46843Y-35348D01*
X46843Y-29466D01*
X46816Y-29332D01*
X46740Y-29219D01*
X46740Y-29218D01*
X42674Y-25153D01*
X42561Y-25077D01*
X42427Y-25050D01*
X42306Y-25050D01*
X42325Y-25005D01*
X42325Y-24796D01*
X42245Y-24603D01*
X42098Y-24455D01*
X41905Y-24375D01*
X41696Y-24375D01*
X41503Y-24455D01*
X41355Y-24602D01*
X41275Y-24795D01*
X41275Y-25004D01*
X41294Y-25050D01*
X40444Y-25050D01*
X38849Y-23454D01*
X38849Y-23291D01*
X38765Y-23089D01*
X38611Y-22935D01*
X38409Y-22851D01*
X38191Y-22851D01*
X37989Y-22935D01*
X37835Y-23089D01*
X37751Y-23291D01*
X37751Y-23509D01*
X37835Y-23711D01*
X37989Y-23865D01*
X38191Y-23949D01*
X38354Y-23949D01*
X40052Y-25647D01*
X40053Y-25647D01*
X40166Y-25723D01*
X40300Y-25750D01*
X41307Y-25750D01*
X41281Y-25826D01*
X41292Y-26030D01*
X41348Y-26167D01*
X41439Y-26190D01*
X41694Y-25935D01*
X41729Y-25900D01*
X41800Y-25829D01*
X41871Y-25900D01*
X41906Y-25935D01*
X42161Y-26190D01*
X42252Y-26167D01*
X42319Y-25974D01*
X42308Y-25775D01*
X46143Y-29610D01*
X46143Y-35493D01*
X46170Y-35627D01*
X46246Y-35740D01*
X48475Y-37969D01*
X48475Y-38104D01*
X48491Y-38144D01*
X47310Y-38144D01*
X46481Y-37315D01*
X45932Y-36766D01*
X45932Y-36682D01*
X45905Y-36548D01*
X45829Y-36435D01*
X45829Y-36434D01*
X45594Y-36199D01*
X45594Y-35982D01*
X45549Y-35873D01*
X45549Y-30495D01*
X45549Y-30396D01*
X45549Y-29706D01*
X45511Y-29614D01*
X45441Y-29544D01*
X45350Y-29506D01*
X45251Y-29506D01*
X44651Y-29506D01*
X44559Y-29544D01*
X44489Y-29614D01*
X44451Y-29705D01*
X44451Y-29711D01*
X44337Y-29597D01*
X44118Y-29506D01*
X43882Y-29506D01*
X43664Y-29596D01*
X43500Y-29760D01*
X43337Y-29597D01*
X43118Y-29506D01*
X42882Y-29506D01*
X42664Y-29596D01*
X42497Y-29763D01*
X42487Y-29785D01*
X42410Y-29761D01*
X42071Y-30100D01*
X42410Y-30439D01*
X42487Y-30414D01*
X42496Y-30436D01*
X42663Y-30603D01*
X42882Y-30694D01*
X43118Y-30694D01*
X43336Y-30604D01*
X43500Y-30440D01*
X43663Y-30603D01*
X43882Y-30694D01*
X44118Y-30694D01*
X44336Y-30604D01*
X44451Y-30489D01*
X44451Y-30494D01*
X44489Y-30586D01*
X44559Y-30656D01*
X44650Y-30694D01*
X44749Y-30694D01*
X45349Y-30694D01*
X45441Y-30656D01*
X45511Y-30586D01*
X45549Y-30495D01*
X45549Y-35873D01*
X45504Y-35764D01*
X45337Y-35597D01*
X45118Y-35506D01*
X44882Y-35506D01*
X44664Y-35596D01*
X44497Y-35763D01*
X44487Y-35785D01*
X44410Y-35761D01*
X44339Y-35832D01*
X44339Y-35690D01*
X44308Y-35592D01*
X44090Y-35512D01*
X43858Y-35522D01*
X43692Y-35592D01*
X43661Y-35690D01*
X44000Y-36029D01*
X44339Y-35690D01*
X44339Y-35832D01*
X44071Y-36100D01*
X44410Y-36439D01*
X44487Y-36414D01*
X44496Y-36436D01*
X44663Y-36603D01*
X44882Y-36694D01*
X45099Y-36694D01*
X45232Y-36826D01*
X45232Y-36911D01*
X45259Y-37045D01*
X45335Y-37158D01*
X45738Y-37562D01*
X42928Y-40374D01*
X42852Y-40487D01*
X42825Y-40621D01*
X42825Y-41925D01*
X42852Y-42059D01*
X42928Y-42172D01*
X43151Y-42395D01*
X43151Y-42469D01*
X42801Y-42119D01*
X42801Y-39620D01*
X43996Y-38425D01*
X44011Y-38425D01*
X44167Y-38361D01*
X44287Y-38241D01*
X44352Y-38085D01*
X44352Y-37916D01*
X44339Y-37884D01*
X44339Y-36510D01*
X44000Y-36171D01*
X43661Y-36510D01*
X43692Y-36608D01*
X43910Y-36688D01*
X44142Y-36678D01*
X44308Y-36608D01*
X44339Y-36510D01*
X44339Y-37884D01*
X44288Y-37760D01*
X44168Y-37640D01*
X44012Y-37575D01*
X43843Y-37575D01*
X43687Y-37639D01*
X43567Y-37759D01*
X43502Y-37915D01*
X43502Y-37930D01*
X42204Y-39229D01*
X42128Y-39342D01*
X42101Y-39476D01*
X42101Y-41930D01*
X42049Y-41941D01*
X41935Y-42017D01*
X41324Y-42628D01*
X41310Y-42628D01*
X41154Y-42692D01*
X41034Y-42812D01*
X40969Y-42968D01*
X40969Y-43137D01*
X41017Y-43254D01*
X39831Y-43254D01*
X39843Y-43246D01*
X40290Y-42799D01*
X40353Y-42705D01*
X40375Y-42594D01*
X40375Y-39807D01*
X40428Y-39807D01*
X40584Y-39743D01*
X40704Y-39623D01*
X40769Y-39467D01*
X40769Y-39340D01*
X40779Y-39326D01*
X40801Y-39215D01*
X40801Y-36660D01*
X40882Y-36694D01*
X41118Y-36694D01*
X41336Y-36604D01*
X41500Y-36440D01*
X41663Y-36603D01*
X41882Y-36694D01*
X42118Y-36694D01*
X42336Y-36604D01*
X42500Y-36440D01*
X42663Y-36603D01*
X42882Y-36694D01*
X43118Y-36694D01*
X43336Y-36604D01*
X43503Y-36437D01*
X43512Y-36414D01*
X43590Y-36439D01*
X43929Y-36100D01*
X43590Y-35761D01*
X43512Y-35785D01*
X43504Y-35764D01*
X43337Y-35597D01*
X43118Y-35506D01*
X42882Y-35506D01*
X42664Y-35596D01*
X42500Y-35760D01*
X42337Y-35597D01*
X42118Y-35506D01*
X41882Y-35506D01*
X41790Y-35543D01*
X41790Y-30643D01*
X41910Y-30688D01*
X42142Y-30678D01*
X42308Y-30608D01*
X42339Y-30510D01*
X42035Y-30206D01*
X42000Y-30171D01*
X41929Y-30100D01*
X42000Y-30029D01*
X42035Y-29994D01*
X42339Y-29690D01*
X42308Y-29592D01*
X42090Y-29512D01*
X42090Y-26261D01*
X41800Y-25971D01*
X41510Y-26261D01*
X41533Y-26352D01*
X41726Y-26419D01*
X41930Y-26408D01*
X42067Y-26352D01*
X42090Y-26261D01*
X42090Y-29512D01*
X41858Y-29522D01*
X41790Y-29550D01*
X41790Y-27186D01*
X41789Y-27185D01*
X41768Y-27075D01*
X41767Y-27074D01*
X41746Y-27043D01*
X41705Y-26981D01*
X41705Y-26980D01*
X41025Y-26300D01*
X41025Y-26202D01*
X40961Y-26046D01*
X40841Y-25926D01*
X40685Y-25861D01*
X40516Y-25861D01*
X40360Y-25925D01*
X40240Y-26045D01*
X40175Y-26201D01*
X40175Y-26370D01*
X40239Y-26526D01*
X40359Y-26646D01*
X40515Y-26711D01*
X40614Y-26711D01*
X41210Y-27306D01*
X41210Y-29544D01*
X41118Y-29506D01*
X40882Y-29506D01*
X40664Y-29596D01*
X40500Y-29760D01*
X40337Y-29597D01*
X40118Y-29506D01*
X39882Y-29506D01*
X39664Y-29596D01*
X39500Y-29760D01*
X39337Y-29597D01*
X39118Y-29506D01*
X38882Y-29506D01*
X38849Y-29519D01*
X38849Y-27509D01*
X38849Y-27291D01*
X38765Y-27089D01*
X38611Y-26935D01*
X38409Y-26851D01*
X38191Y-26851D01*
X38169Y-26859D01*
X36255Y-24945D01*
X36161Y-24882D01*
X36050Y-24860D01*
X35807Y-24860D01*
X35849Y-24759D01*
X35849Y-24541D01*
X35765Y-24339D01*
X35611Y-24185D01*
X35409Y-24101D01*
X35191Y-24101D01*
X34989Y-24185D01*
X34835Y-24339D01*
X34800Y-24423D01*
X34765Y-24339D01*
X34611Y-24185D01*
X34409Y-24101D01*
X34374Y-24101D01*
X34374Y-19807D01*
X33638Y-19071D01*
X33567Y-19142D01*
X33567Y-19000D01*
X32900Y-18333D01*
X32900Y-14680D01*
X32900Y-14322D01*
X32763Y-13991D01*
X32511Y-13738D01*
X32180Y-13600D01*
X31822Y-13600D01*
X31491Y-13737D01*
X31238Y-13989D01*
X31100Y-14320D01*
X31100Y-14678D01*
X31237Y-15009D01*
X31489Y-15262D01*
X31820Y-15400D01*
X32178Y-15400D01*
X32509Y-15263D01*
X32762Y-15011D01*
X32900Y-14680D01*
X32900Y-18333D01*
X32831Y-18264D01*
X32676Y-18363D01*
X32505Y-18779D01*
X32507Y-19230D01*
X32676Y-19637D01*
X32831Y-19736D01*
X33567Y-19000D01*
X33567Y-19142D01*
X32902Y-19807D01*
X33001Y-19962D01*
X33417Y-20133D01*
X33868Y-20131D01*
X34275Y-19962D01*
X34374Y-19807D01*
X34374Y-24101D01*
X34191Y-24101D01*
X33989Y-24185D01*
X33835Y-24339D01*
X33751Y-24541D01*
X33751Y-24759D01*
X33835Y-24961D01*
X33975Y-25101D01*
X33951Y-25101D01*
X33859Y-25139D01*
X33789Y-25209D01*
X33751Y-25300D01*
X33751Y-25399D01*
X33751Y-25999D01*
X33789Y-26091D01*
X33859Y-26161D01*
X33950Y-26199D01*
X34049Y-26199D01*
X34649Y-26199D01*
X34741Y-26161D01*
X34811Y-26091D01*
X34849Y-26000D01*
X34849Y-25975D01*
X34989Y-26115D01*
X35191Y-26199D01*
X35409Y-26199D01*
X35611Y-26115D01*
X35765Y-25961D01*
X35849Y-25759D01*
X35849Y-25541D01*
X35807Y-25440D01*
X35930Y-25440D01*
X37759Y-27269D01*
X37751Y-27291D01*
X37751Y-27509D01*
X37835Y-27711D01*
X37989Y-27865D01*
X38191Y-27949D01*
X38409Y-27949D01*
X38611Y-27865D01*
X38765Y-27711D01*
X38849Y-27509D01*
X38849Y-29519D01*
X38835Y-29525D01*
X38716Y-29406D01*
X38622Y-29343D01*
X38511Y-29321D01*
X37522Y-29321D01*
X37411Y-29343D01*
X37317Y-29406D01*
X37295Y-29428D01*
X37232Y-29522D01*
X37226Y-29550D01*
X37118Y-29506D01*
X36882Y-29506D01*
X36664Y-29596D01*
X36500Y-29760D01*
X36337Y-29597D01*
X36118Y-29506D01*
X35882Y-29506D01*
X35664Y-29596D01*
X35500Y-29760D01*
X35337Y-29597D01*
X35118Y-29506D01*
X34882Y-29506D01*
X34664Y-29596D01*
X34500Y-29760D01*
X34337Y-29597D01*
X34118Y-29506D01*
X33882Y-29506D01*
X33664Y-29596D01*
X33500Y-29760D01*
X33337Y-29597D01*
X33118Y-29506D01*
X32882Y-29506D01*
X32664Y-29596D01*
X32500Y-29760D01*
X32337Y-29597D01*
X32118Y-29506D01*
X31882Y-29506D01*
X31664Y-29596D01*
X31500Y-29760D01*
X31337Y-29597D01*
X31118Y-29506D01*
X31050Y-29506D01*
X31050Y-13550D01*
X87950Y-13550D01*
X87950Y-46450D01*
M02*
