G04 (created by PCBNEW-RS274X (2011-07-19)-testing) date Fri 05 Aug 2011 12:19:43 PM PDT*
G01*
G70*
G90*
%MOIN*%
G04 Gerber Fmt 3.4, Leading zero omitted, Abs format*
%FSLAX34Y34*%
G04 APERTURE LIST*
%ADD10C,0.006000*%
%ADD11C,0.150000*%
%ADD12C,0.180000*%
%ADD13C,0.080000*%
%ADD14C,0.075000*%
%ADD15C,0.105000*%
%ADD16C,0.120000*%
%ADD17R,0.080000X0.089000*%
%ADD18C,0.089000*%
%ADD19R,0.090000X0.090000*%
%ADD20C,0.090000*%
%ADD21R,0.080000X0.080000*%
%ADD22C,0.220000*%
%ADD23C,0.201100*%
G04 APERTURE END LIST*
G54D10*
G54D11*
X32000Y-14500D03*
X32000Y-45500D03*
X87000Y-45500D03*
X87000Y-14500D03*
G54D12*
X54970Y-17565D03*
X82530Y-37250D03*
X82530Y-17565D03*
X54970Y-37250D03*
G54D13*
X38300Y-27400D03*
X38300Y-23400D03*
G54D14*
X50750Y-38000D03*
X50750Y-35000D03*
X49000Y-38000D03*
X49000Y-35000D03*
G54D15*
X43820Y-19500D03*
X45300Y-19500D03*
X46780Y-19500D03*
G54D12*
X43130Y-15560D03*
X47470Y-15560D03*
G54D16*
X48900Y-26900D03*
X48900Y-24900D03*
G54D14*
X41800Y-24900D03*
X41800Y-25900D03*
G54D17*
X45000Y-30100D03*
G54D18*
X44000Y-30100D03*
X43000Y-30100D03*
X42000Y-30100D03*
X41000Y-30100D03*
X40000Y-30100D03*
X39000Y-30100D03*
X38000Y-30100D03*
X37000Y-30100D03*
X36000Y-30100D03*
X35000Y-30100D03*
X34000Y-30100D03*
X33000Y-30100D03*
X32000Y-30100D03*
X31000Y-30100D03*
X31000Y-36100D03*
X32000Y-36100D03*
X33000Y-36100D03*
X34000Y-36100D03*
X35000Y-36100D03*
X36000Y-36100D03*
X37000Y-36100D03*
X38000Y-36100D03*
X39000Y-36100D03*
X40000Y-36100D03*
X41000Y-36100D03*
X42000Y-36100D03*
X43000Y-36100D03*
X44000Y-36100D03*
X45000Y-36100D03*
G54D19*
X43750Y-42500D03*
G54D20*
X43750Y-41500D03*
X44750Y-42500D03*
X44750Y-41500D03*
X45750Y-42500D03*
X45750Y-41500D03*
X46750Y-42500D03*
X46750Y-41500D03*
X47750Y-42500D03*
X47750Y-41500D03*
X48750Y-42500D03*
X48750Y-41500D03*
G54D19*
X34250Y-42500D03*
G54D20*
X34250Y-41500D03*
X35250Y-42500D03*
X35250Y-41500D03*
X36250Y-42500D03*
X36250Y-41500D03*
X37250Y-42500D03*
X37250Y-41500D03*
X38250Y-42500D03*
X38250Y-41500D03*
X39250Y-42500D03*
X39250Y-41500D03*
G54D19*
X62250Y-42500D03*
G54D20*
X62250Y-41500D03*
X63250Y-42500D03*
X63250Y-41500D03*
X64250Y-42500D03*
X64250Y-41500D03*
X65250Y-42500D03*
X65250Y-41500D03*
G54D19*
X78750Y-42500D03*
G54D20*
X78750Y-41500D03*
X79750Y-42500D03*
X79750Y-41500D03*
X80750Y-42500D03*
X80750Y-41500D03*
X81750Y-42500D03*
X81750Y-41500D03*
G54D19*
X54750Y-42500D03*
G54D20*
X54750Y-41500D03*
X55750Y-42500D03*
X55750Y-41500D03*
X56750Y-42500D03*
X56750Y-41500D03*
X57750Y-42500D03*
X57750Y-41500D03*
G54D19*
X71250Y-42500D03*
G54D20*
X71250Y-41500D03*
X72250Y-42500D03*
X72250Y-41500D03*
X73250Y-42500D03*
X73250Y-41500D03*
X74250Y-42500D03*
X74250Y-41500D03*
G54D21*
X34300Y-25650D03*
G54D13*
X34300Y-24650D03*
X35300Y-25650D03*
X35300Y-24650D03*
G54D22*
X36000Y-19000D03*
G54D23*
X33638Y-19000D03*
M02*
