G04 (created by PCBNEW-RS274X (2011-07-19)-testing) date Fri 05 Aug 2011 12:19:43 PM PDT*
G01*
G70*
G90*
%MOIN*%
G04 Gerber Fmt 3.4, Leading zero omitted, Abs format*
%FSLAX34Y34*%
G04 APERTURE LIST*
%ADD10C,0.006000*%
%ADD11C,0.130000*%
%ADD12C,0.160000*%
%ADD13C,0.060000*%
%ADD14C,0.055000*%
%ADD15C,0.085000*%
%ADD16R,0.060000X0.060000*%
%ADD17C,0.100000*%
%ADD18R,0.060000X0.069000*%
%ADD19C,0.069000*%
%ADD20R,0.070000X0.070000*%
%ADD21C,0.070000*%
%ADD22C,0.200000*%
%ADD23C,0.181100*%
%ADD24C,0.035000*%
%ADD25C,0.020000*%
%ADD26C,0.008000*%
%ADD27C,0.010000*%
G04 APERTURE END LIST*
G54D10*
G54D11*
X32000Y-14500D03*
X32000Y-45500D03*
X87000Y-45500D03*
X87000Y-14500D03*
G54D12*
X54970Y-17565D03*
X82530Y-37250D03*
X82530Y-17565D03*
X54970Y-37250D03*
G54D13*
X38300Y-27400D03*
X38300Y-23400D03*
G54D14*
X50750Y-38000D03*
X50750Y-35000D03*
X49000Y-38000D03*
X49000Y-35000D03*
G54D15*
X43820Y-19500D03*
X45300Y-19500D03*
X46780Y-19500D03*
G54D12*
X43130Y-15560D03*
X47470Y-15560D03*
G54D16*
X86000Y-37500D03*
G54D13*
X86000Y-36500D03*
X86000Y-35500D03*
X86000Y-34500D03*
G54D17*
X48900Y-26900D03*
X48900Y-24900D03*
G54D14*
X41800Y-24900D03*
X41800Y-25900D03*
G54D18*
X45000Y-30100D03*
G54D19*
X44000Y-30100D03*
X43000Y-30100D03*
X42000Y-30100D03*
X41000Y-30100D03*
X40000Y-30100D03*
X39000Y-30100D03*
X38000Y-30100D03*
X37000Y-30100D03*
X36000Y-30100D03*
X35000Y-30100D03*
X34000Y-30100D03*
X33000Y-30100D03*
X32000Y-30100D03*
X31000Y-30100D03*
X31000Y-36100D03*
X32000Y-36100D03*
X33000Y-36100D03*
X34000Y-36100D03*
X35000Y-36100D03*
X36000Y-36100D03*
X37000Y-36100D03*
X38000Y-36100D03*
X39000Y-36100D03*
X40000Y-36100D03*
X41000Y-36100D03*
X42000Y-36100D03*
X43000Y-36100D03*
X44000Y-36100D03*
X45000Y-36100D03*
G54D20*
X43750Y-42500D03*
G54D21*
X43750Y-41500D03*
X44750Y-42500D03*
X44750Y-41500D03*
X45750Y-42500D03*
X45750Y-41500D03*
X46750Y-42500D03*
X46750Y-41500D03*
X47750Y-42500D03*
X47750Y-41500D03*
X48750Y-42500D03*
X48750Y-41500D03*
G54D20*
X34250Y-42500D03*
G54D21*
X34250Y-41500D03*
X35250Y-42500D03*
X35250Y-41500D03*
X36250Y-42500D03*
X36250Y-41500D03*
X37250Y-42500D03*
X37250Y-41500D03*
X38250Y-42500D03*
X38250Y-41500D03*
X39250Y-42500D03*
X39250Y-41500D03*
G54D20*
X62250Y-42500D03*
G54D21*
X62250Y-41500D03*
X63250Y-42500D03*
X63250Y-41500D03*
X64250Y-42500D03*
X64250Y-41500D03*
X65250Y-42500D03*
X65250Y-41500D03*
G54D20*
X78750Y-42500D03*
G54D21*
X78750Y-41500D03*
X79750Y-42500D03*
X79750Y-41500D03*
X80750Y-42500D03*
X80750Y-41500D03*
X81750Y-42500D03*
X81750Y-41500D03*
G54D20*
X54750Y-42500D03*
G54D21*
X54750Y-41500D03*
X55750Y-42500D03*
X55750Y-41500D03*
X56750Y-42500D03*
X56750Y-41500D03*
X57750Y-42500D03*
X57750Y-41500D03*
G54D20*
X71250Y-42500D03*
G54D21*
X71250Y-41500D03*
X72250Y-42500D03*
X72250Y-41500D03*
X73250Y-42500D03*
X73250Y-41500D03*
X74250Y-42500D03*
X74250Y-41500D03*
G54D16*
X34300Y-25650D03*
G54D13*
X34300Y-24650D03*
X35300Y-25650D03*
X35300Y-24650D03*
G54D22*
X36000Y-19000D03*
G54D23*
X33638Y-19000D03*
G54D24*
X65183Y-43433D03*
X57818Y-43441D03*
X43927Y-38000D03*
X41394Y-43053D03*
X74660Y-42983D03*
X40344Y-39382D03*
X78392Y-39690D03*
X45299Y-43274D03*
X40600Y-26286D03*
X58755Y-43829D03*
X49805Y-42302D03*
G54D25*
X74121Y-43371D02*
X73250Y-42500D01*
X79879Y-43371D02*
X74121Y-43371D01*
X80750Y-42500D02*
X79879Y-43371D01*
X72317Y-43433D02*
X65183Y-43433D01*
X73250Y-42500D02*
X72317Y-43433D01*
X65175Y-43441D02*
X65183Y-43433D01*
X57818Y-43441D02*
X65175Y-43441D01*
X49000Y-38000D02*
X43927Y-38000D01*
X42027Y-36100D02*
X42000Y-36100D01*
X43927Y-38000D02*
X42027Y-36100D01*
X35803Y-43053D02*
X35250Y-42500D01*
X41394Y-43053D02*
X35803Y-43053D01*
X79196Y-43054D02*
X79750Y-42500D01*
X74731Y-43054D02*
X79196Y-43054D01*
X74660Y-42983D02*
X74731Y-43054D01*
X39920Y-23400D02*
X43820Y-19500D01*
X38300Y-23400D02*
X39920Y-23400D01*
X50750Y-38000D02*
X49000Y-38000D01*
X62697Y-43053D02*
X63250Y-42500D01*
X56303Y-43053D02*
X62697Y-43053D01*
X55750Y-42500D02*
X56303Y-43053D01*
X63804Y-43054D02*
X63250Y-42500D01*
X71696Y-43054D02*
X63804Y-43054D01*
X72250Y-42500D02*
X71696Y-43054D01*
G54D26*
X44970Y-40720D02*
X36847Y-40720D01*
X45750Y-41500D02*
X44970Y-40720D01*
X36847Y-40903D02*
X36847Y-40720D01*
X36250Y-41500D02*
X36847Y-40903D01*
X36847Y-38947D02*
X34000Y-36100D01*
X36847Y-40720D02*
X36847Y-38947D01*
X45346Y-40096D02*
X46750Y-41500D01*
X38996Y-40096D02*
X45346Y-40096D01*
X35000Y-36100D02*
X38996Y-40096D01*
X47250Y-42000D02*
X47750Y-41500D01*
X45532Y-42000D02*
X47250Y-42000D01*
X45250Y-41718D02*
X45532Y-42000D01*
X45250Y-41261D02*
X45250Y-41718D01*
X44893Y-40904D02*
X45250Y-41261D01*
X38846Y-40904D02*
X44893Y-40904D01*
X38250Y-41500D02*
X38846Y-40904D01*
X46314Y-39064D02*
X48750Y-41500D01*
X39964Y-39064D02*
X46314Y-39064D01*
X37000Y-36100D02*
X39964Y-39064D01*
X62677Y-30927D02*
X73250Y-41500D01*
X44035Y-30927D02*
X62677Y-30927D01*
X43500Y-30392D02*
X44035Y-30927D01*
X43500Y-29685D02*
X43500Y-30392D01*
X43294Y-29479D02*
X43500Y-29685D01*
X41621Y-29479D02*
X43294Y-29479D01*
X41000Y-30100D02*
X41621Y-29479D01*
X40344Y-39383D02*
X40344Y-39382D01*
X46372Y-39383D02*
X40344Y-39383D01*
X48250Y-41261D02*
X46372Y-39383D01*
X48250Y-42000D02*
X48250Y-41261D01*
X47750Y-42500D02*
X48250Y-42000D01*
X47582Y-43668D02*
X48750Y-42500D01*
X44881Y-43668D02*
X47582Y-43668D01*
X44244Y-43031D02*
X44881Y-43668D01*
X44244Y-42028D02*
X44244Y-43031D01*
X44222Y-42006D02*
X44244Y-42028D01*
X39744Y-42006D02*
X44222Y-42006D01*
X39250Y-42500D02*
X39744Y-42006D01*
X49173Y-42923D02*
X48750Y-42500D01*
X54256Y-42923D02*
X49173Y-42923D01*
X55992Y-44659D02*
X54256Y-42923D01*
X79814Y-44659D02*
X55992Y-44659D01*
X81250Y-43223D02*
X79814Y-44659D01*
X81250Y-42000D02*
X81250Y-43223D01*
X80750Y-41500D02*
X81250Y-42000D01*
X56244Y-42006D02*
X56750Y-41500D01*
X54278Y-42006D02*
X56244Y-42006D01*
X54256Y-42028D02*
X54278Y-42006D01*
X54256Y-42923D02*
X54256Y-42028D01*
X79940Y-39690D02*
X78392Y-39690D01*
X81750Y-41500D02*
X79940Y-39690D01*
X34750Y-42000D02*
X34250Y-41500D01*
X39453Y-42000D02*
X34750Y-42000D01*
X39953Y-41500D02*
X39453Y-42000D01*
X43750Y-41500D02*
X39953Y-41500D01*
X65756Y-42006D02*
X65250Y-41500D01*
X73744Y-42006D02*
X65756Y-42006D01*
X74250Y-41500D02*
X73744Y-42006D01*
X45250Y-42000D02*
X44750Y-41500D01*
X45250Y-43225D02*
X45250Y-42000D01*
X45299Y-43274D02*
X45250Y-43225D01*
X44639Y-30739D02*
X44000Y-30100D01*
X67989Y-30739D02*
X44639Y-30739D01*
X78750Y-41500D02*
X67989Y-30739D01*
X68350Y-30100D02*
X79750Y-41500D01*
X45000Y-30100D02*
X68350Y-30100D01*
X35093Y-34193D02*
X31000Y-30100D01*
X55943Y-34193D02*
X35093Y-34193D01*
X63250Y-41500D02*
X55943Y-34193D01*
X35431Y-33531D02*
X32000Y-30100D01*
X56281Y-33531D02*
X35431Y-33531D01*
X64250Y-41500D02*
X56281Y-33531D01*
X45300Y-22231D02*
X45300Y-19500D01*
X42197Y-25334D02*
X45300Y-22231D01*
X41552Y-25334D02*
X42197Y-25334D01*
X40600Y-26286D02*
X41552Y-25334D01*
X55149Y-34399D02*
X62250Y-41500D01*
X32701Y-34399D02*
X55149Y-34399D01*
X31000Y-36100D02*
X32701Y-34399D01*
X50332Y-34582D02*
X50750Y-35000D01*
X40518Y-34582D02*
X50332Y-34582D01*
X39000Y-36100D02*
X40518Y-34582D01*
X42411Y-35000D02*
X49000Y-35000D01*
X41500Y-35911D02*
X42411Y-35000D01*
X41500Y-36575D02*
X41500Y-35911D01*
X41478Y-36597D02*
X41500Y-36575D01*
X38497Y-36597D02*
X41478Y-36597D01*
X38000Y-36100D02*
X38497Y-36597D01*
X79795Y-29295D02*
X86000Y-35500D01*
X37098Y-29295D02*
X79795Y-29295D01*
X36500Y-29893D02*
X37098Y-29295D01*
X36500Y-30396D02*
X36500Y-29893D01*
X36305Y-30591D02*
X36500Y-30396D01*
X35491Y-30591D02*
X36305Y-30591D01*
X35000Y-30100D02*
X35491Y-30591D01*
X36065Y-33165D02*
X33000Y-30100D01*
X62915Y-33165D02*
X36065Y-33165D01*
X71250Y-41500D02*
X62915Y-33165D01*
X80611Y-29111D02*
X86000Y-34500D01*
X36989Y-29111D02*
X80611Y-29111D01*
X36000Y-30100D02*
X36989Y-29111D01*
X35904Y-32004D02*
X34000Y-30100D01*
X62754Y-32004D02*
X35904Y-32004D01*
X72250Y-41500D02*
X62754Y-32004D01*
G54D25*
X56079Y-43829D02*
X58755Y-43829D01*
X54750Y-42500D02*
X56079Y-43829D01*
X35354Y-43604D02*
X34250Y-42500D01*
X42093Y-43604D02*
X35354Y-43604D01*
X43197Y-42500D02*
X42093Y-43604D01*
X43750Y-42500D02*
X43197Y-42500D01*
X47900Y-25900D02*
X48900Y-24900D01*
X41800Y-25900D02*
X47900Y-25900D01*
X58332Y-41918D02*
X57750Y-42500D01*
X58332Y-41258D02*
X58332Y-41918D01*
X57922Y-40848D02*
X58332Y-41258D01*
X51242Y-40848D02*
X57922Y-40848D01*
X51242Y-37759D02*
X51242Y-40848D01*
X50860Y-37377D02*
X51242Y-37759D01*
X45277Y-37377D02*
X50860Y-37377D01*
X44000Y-36100D02*
X45277Y-37377D01*
X49805Y-42285D02*
X49805Y-42302D01*
X51242Y-40848D02*
X49805Y-42285D01*
G54D26*
X42171Y-30929D02*
X43000Y-30100D01*
X35090Y-30929D02*
X42171Y-30929D01*
X34500Y-30339D02*
X35090Y-30929D01*
X34500Y-26293D02*
X34500Y-30339D01*
X34300Y-26093D02*
X34500Y-26293D01*
X34300Y-25650D02*
X34300Y-26093D01*
X40800Y-24900D02*
X41800Y-24900D01*
X38300Y-27400D02*
X40800Y-24900D01*
G54D10*
G36*
X37321Y-42500D02*
X37250Y-42571D01*
X37179Y-42500D01*
X37250Y-42429D01*
X37321Y-42500D01*
X37321Y-42500D01*
G37*
G54D27*
X37321Y-42500D02*
X37250Y-42571D01*
X37179Y-42500D01*
X37250Y-42429D01*
X37321Y-42500D01*
G54D10*
G36*
X42071Y-30100D02*
X42000Y-30171D01*
X41965Y-30206D01*
X41661Y-30510D01*
X41692Y-30608D01*
X41776Y-30639D01*
X41251Y-30639D01*
X41336Y-30604D01*
X41503Y-30437D01*
X41512Y-30414D01*
X41590Y-30439D01*
X41894Y-30135D01*
X41929Y-30100D01*
X42000Y-30029D01*
X42071Y-30100D01*
X42071Y-30100D01*
G37*
G54D27*
X42071Y-30100D02*
X42000Y-30171D01*
X41965Y-30206D01*
X41661Y-30510D01*
X41692Y-30608D01*
X41776Y-30639D01*
X41251Y-30639D01*
X41336Y-30604D01*
X41503Y-30437D01*
X41512Y-30414D01*
X41590Y-30439D01*
X41894Y-30135D01*
X41929Y-30100D01*
X42000Y-30029D01*
X42071Y-30100D01*
G54D10*
G36*
X47741Y-43099D02*
X47462Y-43378D01*
X47093Y-43378D01*
X47093Y-42914D01*
X46750Y-42571D01*
X46407Y-42914D01*
X46440Y-43013D01*
X46659Y-43093D01*
X46894Y-43082D01*
X47060Y-43013D01*
X47093Y-42914D01*
X47093Y-43378D01*
X45716Y-43378D01*
X45724Y-43359D01*
X45724Y-43190D01*
X45686Y-43099D01*
X45869Y-43099D01*
X46089Y-43008D01*
X46258Y-42839D01*
X46265Y-42819D01*
X46336Y-42843D01*
X46644Y-42535D01*
X46679Y-42500D01*
X46750Y-42429D01*
X46821Y-42500D01*
X46856Y-42535D01*
X47164Y-42843D01*
X47234Y-42819D01*
X47242Y-42839D01*
X47411Y-43008D01*
X47631Y-43099D01*
X47741Y-43099D01*
X47741Y-43099D01*
G37*
G54D27*
X47741Y-43099D02*
X47462Y-43378D01*
X47093Y-43378D01*
X47093Y-42914D01*
X46750Y-42571D01*
X46407Y-42914D01*
X46440Y-43013D01*
X46659Y-43093D01*
X46894Y-43082D01*
X47060Y-43013D01*
X47093Y-42914D01*
X47093Y-43378D01*
X45716Y-43378D01*
X45724Y-43359D01*
X45724Y-43190D01*
X45686Y-43099D01*
X45869Y-43099D01*
X46089Y-43008D01*
X46258Y-42839D01*
X46265Y-42819D01*
X46336Y-42843D01*
X46644Y-42535D01*
X46679Y-42500D01*
X46750Y-42429D01*
X46821Y-42500D01*
X46856Y-42535D01*
X47164Y-42843D01*
X47234Y-42819D01*
X47242Y-42839D01*
X47411Y-43008D01*
X47631Y-43099D01*
X47741Y-43099D01*
G54D10*
G36*
X61817Y-41914D02*
X61759Y-41939D01*
X61689Y-42009D01*
X61651Y-42100D01*
X61651Y-42199D01*
X61651Y-42703D01*
X58302Y-42703D01*
X58343Y-42591D01*
X58332Y-42356D01*
X58263Y-42190D01*
X58164Y-42157D01*
X57856Y-42465D01*
X57821Y-42500D01*
X57750Y-42571D01*
X57679Y-42500D01*
X57644Y-42465D01*
X57336Y-42157D01*
X57265Y-42180D01*
X57258Y-42161D01*
X57097Y-42000D01*
X57250Y-41847D01*
X57411Y-42008D01*
X57430Y-42015D01*
X57407Y-42086D01*
X57750Y-42429D01*
X58093Y-42086D01*
X58069Y-42015D01*
X58089Y-42008D01*
X58258Y-41839D01*
X58349Y-41619D01*
X58349Y-41381D01*
X58258Y-41161D01*
X58089Y-40992D01*
X57869Y-40901D01*
X57631Y-40901D01*
X57411Y-40992D01*
X57250Y-41153D01*
X57089Y-40992D01*
X56869Y-40901D01*
X56631Y-40901D01*
X56411Y-40992D01*
X56250Y-41153D01*
X56089Y-40992D01*
X56020Y-40963D01*
X56020Y-37460D01*
X56020Y-37042D01*
X55860Y-36656D01*
X55565Y-36360D01*
X55180Y-36200D01*
X54762Y-36200D01*
X54376Y-36360D01*
X54080Y-36655D01*
X53920Y-37040D01*
X53920Y-37458D01*
X54080Y-37844D01*
X54375Y-38140D01*
X54760Y-38300D01*
X55178Y-38300D01*
X55564Y-38140D01*
X55860Y-37845D01*
X56020Y-37460D01*
X56020Y-40963D01*
X55869Y-40901D01*
X55631Y-40901D01*
X55411Y-40992D01*
X55250Y-41153D01*
X55089Y-40992D01*
X54869Y-40901D01*
X54631Y-40901D01*
X54411Y-40992D01*
X54242Y-41161D01*
X54151Y-41381D01*
X54151Y-41619D01*
X54197Y-41731D01*
X54167Y-41738D01*
X54073Y-41801D01*
X54051Y-41823D01*
X53988Y-41917D01*
X53966Y-42028D01*
X53966Y-42633D01*
X49343Y-42633D01*
X49349Y-42619D01*
X49349Y-42381D01*
X49258Y-42161D01*
X49097Y-42000D01*
X49258Y-41839D01*
X49349Y-41619D01*
X49349Y-41381D01*
X49258Y-41161D01*
X49089Y-40992D01*
X48869Y-40901D01*
X48631Y-40901D01*
X48581Y-40921D01*
X46519Y-38859D01*
X46425Y-38796D01*
X46314Y-38774D01*
X40084Y-38774D01*
X38004Y-36694D01*
X38118Y-36694D01*
X38164Y-36674D01*
X38291Y-36801D01*
X38292Y-36802D01*
X38385Y-36864D01*
X38386Y-36865D01*
X38496Y-36886D01*
X38497Y-36887D01*
X41478Y-36887D01*
X41589Y-36865D01*
X41683Y-36802D01*
X41705Y-36780D01*
X41768Y-36686D01*
X41775Y-36649D01*
X41882Y-36694D01*
X42118Y-36694D01*
X42124Y-36691D01*
X43502Y-38069D01*
X43502Y-38084D01*
X43566Y-38240D01*
X43686Y-38360D01*
X43842Y-38425D01*
X44011Y-38425D01*
X44167Y-38361D01*
X44178Y-38350D01*
X48607Y-38350D01*
X48702Y-38445D01*
X48895Y-38525D01*
X49104Y-38525D01*
X49297Y-38445D01*
X49392Y-38350D01*
X50357Y-38350D01*
X50452Y-38445D01*
X50645Y-38525D01*
X50854Y-38525D01*
X51047Y-38445D01*
X51195Y-38298D01*
X51275Y-38105D01*
X51275Y-37896D01*
X51195Y-37703D01*
X51048Y-37555D01*
X50855Y-37475D01*
X50646Y-37475D01*
X50453Y-37555D01*
X50357Y-37650D01*
X49392Y-37650D01*
X49298Y-37555D01*
X49105Y-37475D01*
X48896Y-37475D01*
X48703Y-37555D01*
X48607Y-37650D01*
X45594Y-37650D01*
X45594Y-36218D01*
X45594Y-35982D01*
X45504Y-35764D01*
X45337Y-35597D01*
X45118Y-35506D01*
X44882Y-35506D01*
X44664Y-35596D01*
X44497Y-35763D01*
X44487Y-35785D01*
X44410Y-35761D01*
X44339Y-35832D01*
X44339Y-35690D01*
X44308Y-35592D01*
X44090Y-35512D01*
X43858Y-35522D01*
X43692Y-35592D01*
X43661Y-35690D01*
X44000Y-36029D01*
X44339Y-35690D01*
X44339Y-35832D01*
X44071Y-36100D01*
X44410Y-36439D01*
X44487Y-36414D01*
X44496Y-36436D01*
X44663Y-36603D01*
X44882Y-36694D01*
X45118Y-36694D01*
X45336Y-36604D01*
X45503Y-36437D01*
X45594Y-36218D01*
X45594Y-37650D01*
X44339Y-37650D01*
X44339Y-36510D01*
X44000Y-36171D01*
X43661Y-36510D01*
X43692Y-36608D01*
X43910Y-36688D01*
X44142Y-36678D01*
X44308Y-36608D01*
X44339Y-36510D01*
X44339Y-37650D01*
X44178Y-37650D01*
X44168Y-37640D01*
X44012Y-37575D01*
X43996Y-37575D01*
X43115Y-36694D01*
X43118Y-36694D01*
X43336Y-36604D01*
X43503Y-36437D01*
X43512Y-36414D01*
X43590Y-36439D01*
X43929Y-36100D01*
X43590Y-35761D01*
X43512Y-35785D01*
X43504Y-35764D01*
X43337Y-35597D01*
X43118Y-35506D01*
X42882Y-35506D01*
X42664Y-35596D01*
X42500Y-35760D01*
X42337Y-35597D01*
X42257Y-35563D01*
X42531Y-35290D01*
X48552Y-35290D01*
X48555Y-35297D01*
X48702Y-35445D01*
X48895Y-35525D01*
X49104Y-35525D01*
X49297Y-35445D01*
X49445Y-35298D01*
X49525Y-35105D01*
X49525Y-34896D01*
X49515Y-34872D01*
X50212Y-34872D01*
X50227Y-34887D01*
X50225Y-34895D01*
X50225Y-35104D01*
X50305Y-35297D01*
X50452Y-35445D01*
X50645Y-35525D01*
X50854Y-35525D01*
X51047Y-35445D01*
X51195Y-35298D01*
X51275Y-35105D01*
X51275Y-34896D01*
X51195Y-34703D01*
X51181Y-34689D01*
X55029Y-34689D01*
X61671Y-41331D01*
X61651Y-41381D01*
X61651Y-41619D01*
X61742Y-41839D01*
X61817Y-41914D01*
X61817Y-41914D01*
G37*
G54D27*
X61817Y-41914D02*
X61759Y-41939D01*
X61689Y-42009D01*
X61651Y-42100D01*
X61651Y-42199D01*
X61651Y-42703D01*
X58302Y-42703D01*
X58343Y-42591D01*
X58332Y-42356D01*
X58263Y-42190D01*
X58164Y-42157D01*
X57856Y-42465D01*
X57821Y-42500D01*
X57750Y-42571D01*
X57679Y-42500D01*
X57644Y-42465D01*
X57336Y-42157D01*
X57265Y-42180D01*
X57258Y-42161D01*
X57097Y-42000D01*
X57250Y-41847D01*
X57411Y-42008D01*
X57430Y-42015D01*
X57407Y-42086D01*
X57750Y-42429D01*
X58093Y-42086D01*
X58069Y-42015D01*
X58089Y-42008D01*
X58258Y-41839D01*
X58349Y-41619D01*
X58349Y-41381D01*
X58258Y-41161D01*
X58089Y-40992D01*
X57869Y-40901D01*
X57631Y-40901D01*
X57411Y-40992D01*
X57250Y-41153D01*
X57089Y-40992D01*
X56869Y-40901D01*
X56631Y-40901D01*
X56411Y-40992D01*
X56250Y-41153D01*
X56089Y-40992D01*
X56020Y-40963D01*
X56020Y-37460D01*
X56020Y-37042D01*
X55860Y-36656D01*
X55565Y-36360D01*
X55180Y-36200D01*
X54762Y-36200D01*
X54376Y-36360D01*
X54080Y-36655D01*
X53920Y-37040D01*
X53920Y-37458D01*
X54080Y-37844D01*
X54375Y-38140D01*
X54760Y-38300D01*
X55178Y-38300D01*
X55564Y-38140D01*
X55860Y-37845D01*
X56020Y-37460D01*
X56020Y-40963D01*
X55869Y-40901D01*
X55631Y-40901D01*
X55411Y-40992D01*
X55250Y-41153D01*
X55089Y-40992D01*
X54869Y-40901D01*
X54631Y-40901D01*
X54411Y-40992D01*
X54242Y-41161D01*
X54151Y-41381D01*
X54151Y-41619D01*
X54197Y-41731D01*
X54167Y-41738D01*
X54073Y-41801D01*
X54051Y-41823D01*
X53988Y-41917D01*
X53966Y-42028D01*
X53966Y-42633D01*
X49343Y-42633D01*
X49349Y-42619D01*
X49349Y-42381D01*
X49258Y-42161D01*
X49097Y-42000D01*
X49258Y-41839D01*
X49349Y-41619D01*
X49349Y-41381D01*
X49258Y-41161D01*
X49089Y-40992D01*
X48869Y-40901D01*
X48631Y-40901D01*
X48581Y-40921D01*
X46519Y-38859D01*
X46425Y-38796D01*
X46314Y-38774D01*
X40084Y-38774D01*
X38004Y-36694D01*
X38118Y-36694D01*
X38164Y-36674D01*
X38291Y-36801D01*
X38292Y-36802D01*
X38385Y-36864D01*
X38386Y-36865D01*
X38496Y-36886D01*
X38497Y-36887D01*
X41478Y-36887D01*
X41589Y-36865D01*
X41683Y-36802D01*
X41705Y-36780D01*
X41768Y-36686D01*
X41775Y-36649D01*
X41882Y-36694D01*
X42118Y-36694D01*
X42124Y-36691D01*
X43502Y-38069D01*
X43502Y-38084D01*
X43566Y-38240D01*
X43686Y-38360D01*
X43842Y-38425D01*
X44011Y-38425D01*
X44167Y-38361D01*
X44178Y-38350D01*
X48607Y-38350D01*
X48702Y-38445D01*
X48895Y-38525D01*
X49104Y-38525D01*
X49297Y-38445D01*
X49392Y-38350D01*
X50357Y-38350D01*
X50452Y-38445D01*
X50645Y-38525D01*
X50854Y-38525D01*
X51047Y-38445D01*
X51195Y-38298D01*
X51275Y-38105D01*
X51275Y-37896D01*
X51195Y-37703D01*
X51048Y-37555D01*
X50855Y-37475D01*
X50646Y-37475D01*
X50453Y-37555D01*
X50357Y-37650D01*
X49392Y-37650D01*
X49298Y-37555D01*
X49105Y-37475D01*
X48896Y-37475D01*
X48703Y-37555D01*
X48607Y-37650D01*
X45594Y-37650D01*
X45594Y-36218D01*
X45594Y-35982D01*
X45504Y-35764D01*
X45337Y-35597D01*
X45118Y-35506D01*
X44882Y-35506D01*
X44664Y-35596D01*
X44497Y-35763D01*
X44487Y-35785D01*
X44410Y-35761D01*
X44339Y-35832D01*
X44339Y-35690D01*
X44308Y-35592D01*
X44090Y-35512D01*
X43858Y-35522D01*
X43692Y-35592D01*
X43661Y-35690D01*
X44000Y-36029D01*
X44339Y-35690D01*
X44339Y-35832D01*
X44071Y-36100D01*
X44410Y-36439D01*
X44487Y-36414D01*
X44496Y-36436D01*
X44663Y-36603D01*
X44882Y-36694D01*
X45118Y-36694D01*
X45336Y-36604D01*
X45503Y-36437D01*
X45594Y-36218D01*
X45594Y-37650D01*
X44339Y-37650D01*
X44339Y-36510D01*
X44000Y-36171D01*
X43661Y-36510D01*
X43692Y-36608D01*
X43910Y-36688D01*
X44142Y-36678D01*
X44308Y-36608D01*
X44339Y-36510D01*
X44339Y-37650D01*
X44178Y-37650D01*
X44168Y-37640D01*
X44012Y-37575D01*
X43996Y-37575D01*
X43115Y-36694D01*
X43118Y-36694D01*
X43336Y-36604D01*
X43503Y-36437D01*
X43512Y-36414D01*
X43590Y-36439D01*
X43929Y-36100D01*
X43590Y-35761D01*
X43512Y-35785D01*
X43504Y-35764D01*
X43337Y-35597D01*
X43118Y-35506D01*
X42882Y-35506D01*
X42664Y-35596D01*
X42500Y-35760D01*
X42337Y-35597D01*
X42257Y-35563D01*
X42531Y-35290D01*
X48552Y-35290D01*
X48555Y-35297D01*
X48702Y-35445D01*
X48895Y-35525D01*
X49104Y-35525D01*
X49297Y-35445D01*
X49445Y-35298D01*
X49525Y-35105D01*
X49525Y-34896D01*
X49515Y-34872D01*
X50212Y-34872D01*
X50227Y-34887D01*
X50225Y-34895D01*
X50225Y-35104D01*
X50305Y-35297D01*
X50452Y-35445D01*
X50645Y-35525D01*
X50854Y-35525D01*
X51047Y-35445D01*
X51195Y-35298D01*
X51275Y-35105D01*
X51275Y-34896D01*
X51195Y-34703D01*
X51181Y-34689D01*
X55029Y-34689D01*
X61671Y-41331D01*
X61651Y-41381D01*
X61651Y-41619D01*
X61742Y-41839D01*
X61817Y-41914D01*
G54D10*
G36*
X65321Y-42500D02*
X65250Y-42571D01*
X65179Y-42500D01*
X65144Y-42465D01*
X64836Y-42157D01*
X64765Y-42180D01*
X64758Y-42161D01*
X64597Y-42000D01*
X64750Y-41847D01*
X64911Y-42008D01*
X64930Y-42015D01*
X64907Y-42086D01*
X65215Y-42394D01*
X65250Y-42429D01*
X65321Y-42500D01*
X65321Y-42500D01*
G37*
G54D27*
X65321Y-42500D02*
X65250Y-42571D01*
X65179Y-42500D01*
X65144Y-42465D01*
X64836Y-42157D01*
X64765Y-42180D01*
X64758Y-42161D01*
X64597Y-42000D01*
X64750Y-41847D01*
X64911Y-42008D01*
X64930Y-42015D01*
X64907Y-42086D01*
X65215Y-42394D01*
X65250Y-42429D01*
X65321Y-42500D01*
G54D10*
G36*
X78317Y-41914D02*
X78259Y-41939D01*
X78189Y-42009D01*
X78151Y-42100D01*
X78151Y-42199D01*
X78151Y-42704D01*
X74982Y-42704D01*
X74901Y-42623D01*
X74840Y-42597D01*
X74843Y-42591D01*
X74832Y-42356D01*
X74763Y-42190D01*
X74664Y-42157D01*
X74356Y-42465D01*
X74321Y-42500D01*
X74250Y-42571D01*
X74179Y-42500D01*
X74250Y-42429D01*
X74285Y-42394D01*
X74593Y-42086D01*
X74569Y-42015D01*
X74589Y-42008D01*
X74758Y-41839D01*
X74849Y-41619D01*
X74849Y-41381D01*
X74758Y-41161D01*
X74589Y-40992D01*
X74369Y-40901D01*
X74131Y-40901D01*
X73911Y-40992D01*
X73750Y-41153D01*
X73589Y-40992D01*
X73369Y-40901D01*
X73131Y-40901D01*
X73081Y-40921D01*
X63189Y-31029D01*
X67869Y-31029D01*
X78171Y-41331D01*
X78151Y-41381D01*
X78151Y-41619D01*
X78242Y-41839D01*
X78317Y-41914D01*
X78317Y-41914D01*
G37*
G54D27*
X78317Y-41914D02*
X78259Y-41939D01*
X78189Y-42009D01*
X78151Y-42100D01*
X78151Y-42199D01*
X78151Y-42704D01*
X74982Y-42704D01*
X74901Y-42623D01*
X74840Y-42597D01*
X74843Y-42591D01*
X74832Y-42356D01*
X74763Y-42190D01*
X74664Y-42157D01*
X74356Y-42465D01*
X74321Y-42500D01*
X74250Y-42571D01*
X74179Y-42500D01*
X74250Y-42429D01*
X74285Y-42394D01*
X74593Y-42086D01*
X74569Y-42015D01*
X74589Y-42008D01*
X74758Y-41839D01*
X74849Y-41619D01*
X74849Y-41381D01*
X74758Y-41161D01*
X74589Y-40992D01*
X74369Y-40901D01*
X74131Y-40901D01*
X73911Y-40992D01*
X73750Y-41153D01*
X73589Y-40992D01*
X73369Y-40901D01*
X73131Y-40901D01*
X73081Y-40921D01*
X63189Y-31029D01*
X67869Y-31029D01*
X78171Y-41331D01*
X78151Y-41381D01*
X78151Y-41619D01*
X78242Y-41839D01*
X78317Y-41914D01*
G54D10*
G36*
X87950Y-46450D02*
X87900Y-46450D01*
X87900Y-45680D01*
X87900Y-45322D01*
X87900Y-14680D01*
X87900Y-14322D01*
X87763Y-13991D01*
X87511Y-13738D01*
X87180Y-13600D01*
X86822Y-13600D01*
X86491Y-13737D01*
X86238Y-13989D01*
X86100Y-14320D01*
X86100Y-14678D01*
X86237Y-15009D01*
X86489Y-15262D01*
X86820Y-15400D01*
X87178Y-15400D01*
X87509Y-15263D01*
X87762Y-15011D01*
X87900Y-14680D01*
X87900Y-45322D01*
X87763Y-44991D01*
X87511Y-44738D01*
X87180Y-44600D01*
X86822Y-44600D01*
X86549Y-44712D01*
X86549Y-37850D01*
X86549Y-37751D01*
X86549Y-37151D01*
X86543Y-37136D01*
X86543Y-36579D01*
X86532Y-36366D01*
X86472Y-36219D01*
X86378Y-36192D01*
X86071Y-36500D01*
X86378Y-36808D01*
X86472Y-36781D01*
X86543Y-36579D01*
X86543Y-37136D01*
X86511Y-37059D01*
X86441Y-36989D01*
X86350Y-36951D01*
X86287Y-36951D01*
X86308Y-36878D01*
X86000Y-36571D01*
X85929Y-36641D01*
X85929Y-36500D01*
X85622Y-36192D01*
X85528Y-36219D01*
X85457Y-36421D01*
X85468Y-36634D01*
X85528Y-36781D01*
X85622Y-36808D01*
X85929Y-36500D01*
X85929Y-36641D01*
X85692Y-36878D01*
X85712Y-36951D01*
X85651Y-36951D01*
X85559Y-36989D01*
X85489Y-37059D01*
X85451Y-37150D01*
X85451Y-37249D01*
X85451Y-37849D01*
X85489Y-37941D01*
X85559Y-38011D01*
X85650Y-38049D01*
X85749Y-38049D01*
X86349Y-38049D01*
X86441Y-38011D01*
X86511Y-37941D01*
X86549Y-37850D01*
X86549Y-44712D01*
X86491Y-44737D01*
X86238Y-44989D01*
X86100Y-45320D01*
X86100Y-45678D01*
X86237Y-46009D01*
X86489Y-46262D01*
X86820Y-46400D01*
X87178Y-46400D01*
X87509Y-46263D01*
X87762Y-46011D01*
X87900Y-45680D01*
X87900Y-46450D01*
X83580Y-46450D01*
X83580Y-37460D01*
X83580Y-37042D01*
X83420Y-36656D01*
X83125Y-36360D01*
X82740Y-36200D01*
X82322Y-36200D01*
X81936Y-36360D01*
X81640Y-36655D01*
X81480Y-37040D01*
X81480Y-37458D01*
X81640Y-37844D01*
X81935Y-38140D01*
X82320Y-38300D01*
X82738Y-38300D01*
X83124Y-38140D01*
X83420Y-37845D01*
X83580Y-37460D01*
X83580Y-46450D01*
X82343Y-46450D01*
X82343Y-42591D01*
X82332Y-42356D01*
X82263Y-42190D01*
X82164Y-42157D01*
X81821Y-42500D01*
X82164Y-42843D01*
X82263Y-42810D01*
X82343Y-42591D01*
X82343Y-46450D01*
X32900Y-46450D01*
X32900Y-45680D01*
X32900Y-45322D01*
X32763Y-44991D01*
X32511Y-44738D01*
X32180Y-44600D01*
X31822Y-44600D01*
X31491Y-44737D01*
X31238Y-44989D01*
X31100Y-45320D01*
X31100Y-45678D01*
X31237Y-46009D01*
X31489Y-46262D01*
X31820Y-46400D01*
X32178Y-46400D01*
X32509Y-46263D01*
X32762Y-46011D01*
X32900Y-45680D01*
X32900Y-46450D01*
X31050Y-46450D01*
X31050Y-36694D01*
X31118Y-36694D01*
X31336Y-36604D01*
X31500Y-36440D01*
X31663Y-36603D01*
X31882Y-36694D01*
X32118Y-36694D01*
X32336Y-36604D01*
X32500Y-36440D01*
X32663Y-36603D01*
X32882Y-36694D01*
X33118Y-36694D01*
X33336Y-36604D01*
X33500Y-36440D01*
X33663Y-36603D01*
X33882Y-36694D01*
X34118Y-36694D01*
X34164Y-36674D01*
X36557Y-39067D01*
X36557Y-40720D01*
X36557Y-40783D01*
X36418Y-40921D01*
X36369Y-40901D01*
X36131Y-40901D01*
X35911Y-40992D01*
X35750Y-41153D01*
X35589Y-40992D01*
X35369Y-40901D01*
X35131Y-40901D01*
X34911Y-40992D01*
X34750Y-41153D01*
X34589Y-40992D01*
X34369Y-40901D01*
X34131Y-40901D01*
X33911Y-40992D01*
X33742Y-41161D01*
X33651Y-41381D01*
X33651Y-41619D01*
X33742Y-41839D01*
X33817Y-41914D01*
X33759Y-41939D01*
X33689Y-42009D01*
X33651Y-42100D01*
X33651Y-42199D01*
X33651Y-42899D01*
X33689Y-42991D01*
X33759Y-43061D01*
X33850Y-43099D01*
X33949Y-43099D01*
X34354Y-43099D01*
X35106Y-43851D01*
X35107Y-43851D01*
X35220Y-43927D01*
X35354Y-43954D01*
X42093Y-43954D01*
X42093Y-43953D01*
X42227Y-43927D01*
X42340Y-43851D01*
X43194Y-42996D01*
X43259Y-43061D01*
X43350Y-43099D01*
X43449Y-43099D01*
X43967Y-43099D01*
X43976Y-43142D01*
X44039Y-43236D01*
X44675Y-43872D01*
X44676Y-43873D01*
X44769Y-43935D01*
X44770Y-43936D01*
X44880Y-43957D01*
X44881Y-43958D01*
X47582Y-43958D01*
X47693Y-43936D01*
X47787Y-43873D01*
X48581Y-43078D01*
X48631Y-43099D01*
X48869Y-43099D01*
X48918Y-43078D01*
X48968Y-43128D01*
X49062Y-43191D01*
X49173Y-43213D01*
X54136Y-43213D01*
X55787Y-44864D01*
X55881Y-44927D01*
X55992Y-44949D01*
X79814Y-44949D01*
X79925Y-44927D01*
X80019Y-44864D01*
X81454Y-43429D01*
X81454Y-43428D01*
X81455Y-43428D01*
X81517Y-43335D01*
X81518Y-43334D01*
X81539Y-43224D01*
X81540Y-43223D01*
X81540Y-43049D01*
X81659Y-43093D01*
X81894Y-43082D01*
X82060Y-43013D01*
X82093Y-42914D01*
X81785Y-42606D01*
X81750Y-42571D01*
X81679Y-42500D01*
X81750Y-42429D01*
X81785Y-42394D01*
X82093Y-42086D01*
X82069Y-42015D01*
X82089Y-42008D01*
X82258Y-41839D01*
X82349Y-41619D01*
X82349Y-41381D01*
X82258Y-41161D01*
X82089Y-40992D01*
X81869Y-40901D01*
X81631Y-40901D01*
X81582Y-40921D01*
X80145Y-39485D01*
X80051Y-39422D01*
X79940Y-39400D01*
X78703Y-39400D01*
X78633Y-39330D01*
X78477Y-39265D01*
X78308Y-39265D01*
X78152Y-39329D01*
X78070Y-39410D01*
X68555Y-29895D01*
X68461Y-29832D01*
X68350Y-29810D01*
X45549Y-29810D01*
X45549Y-29706D01*
X45511Y-29614D01*
X45482Y-29585D01*
X79675Y-29585D01*
X85459Y-35369D01*
X85451Y-35391D01*
X85451Y-35609D01*
X85535Y-35811D01*
X85689Y-35965D01*
X85780Y-36002D01*
X85719Y-36028D01*
X85692Y-36122D01*
X86000Y-36429D01*
X86308Y-36122D01*
X86281Y-36028D01*
X86215Y-36004D01*
X86311Y-35965D01*
X86465Y-35811D01*
X86549Y-35609D01*
X86549Y-35391D01*
X86465Y-35189D01*
X86311Y-35035D01*
X86226Y-35000D01*
X86311Y-34965D01*
X86465Y-34811D01*
X86549Y-34609D01*
X86549Y-34391D01*
X86465Y-34189D01*
X86311Y-34035D01*
X86109Y-33951D01*
X85891Y-33951D01*
X85869Y-33959D01*
X83580Y-31670D01*
X83580Y-17775D01*
X83580Y-17357D01*
X83420Y-16971D01*
X83125Y-16675D01*
X82740Y-16515D01*
X82322Y-16515D01*
X81936Y-16675D01*
X81640Y-16970D01*
X81480Y-17355D01*
X81480Y-17773D01*
X81640Y-18159D01*
X81935Y-18455D01*
X82320Y-18615D01*
X82738Y-18615D01*
X83124Y-18455D01*
X83420Y-18160D01*
X83580Y-17775D01*
X83580Y-31670D01*
X80816Y-28906D01*
X80722Y-28843D01*
X80611Y-28821D01*
X56020Y-28821D01*
X56020Y-17775D01*
X56020Y-17357D01*
X55860Y-16971D01*
X55565Y-16675D01*
X55180Y-16515D01*
X54762Y-16515D01*
X54376Y-16675D01*
X54080Y-16970D01*
X53920Y-17355D01*
X53920Y-17773D01*
X54080Y-18159D01*
X54375Y-18455D01*
X54760Y-18615D01*
X55178Y-18615D01*
X55564Y-18455D01*
X55860Y-18160D01*
X56020Y-17775D01*
X56020Y-28821D01*
X49649Y-28821D01*
X49649Y-27050D01*
X49649Y-26752D01*
X49639Y-26727D01*
X49639Y-25027D01*
X49631Y-24735D01*
X49534Y-24500D01*
X49420Y-24450D01*
X49350Y-24520D01*
X49350Y-24380D01*
X49300Y-24266D01*
X49027Y-24161D01*
X48735Y-24169D01*
X48520Y-24257D01*
X48520Y-15770D01*
X48520Y-15352D01*
X48360Y-14966D01*
X48065Y-14670D01*
X47680Y-14510D01*
X47262Y-14510D01*
X46876Y-14670D01*
X46580Y-14965D01*
X46420Y-15350D01*
X46420Y-15768D01*
X46580Y-16154D01*
X46875Y-16450D01*
X47260Y-16610D01*
X47678Y-16610D01*
X48064Y-16450D01*
X48360Y-16155D01*
X48520Y-15770D01*
X48520Y-24257D01*
X48500Y-24266D01*
X48450Y-24380D01*
X48900Y-24829D01*
X49350Y-24380D01*
X49350Y-24520D01*
X48971Y-24900D01*
X49420Y-25350D01*
X49534Y-25300D01*
X49639Y-25027D01*
X49639Y-26727D01*
X49535Y-26477D01*
X49350Y-26291D01*
X49350Y-25420D01*
X48900Y-24971D01*
X48829Y-25041D01*
X48829Y-24900D01*
X48380Y-24450D01*
X48266Y-24500D01*
X48161Y-24773D01*
X48169Y-25065D01*
X48266Y-25300D01*
X48380Y-25350D01*
X48829Y-24900D01*
X48829Y-25041D01*
X48450Y-25420D01*
X48500Y-25534D01*
X48773Y-25639D01*
X49065Y-25631D01*
X49300Y-25534D01*
X49350Y-25420D01*
X49350Y-26291D01*
X49325Y-26266D01*
X49050Y-26151D01*
X48752Y-26151D01*
X48477Y-26265D01*
X48266Y-26475D01*
X48151Y-26750D01*
X48151Y-27048D01*
X48265Y-27323D01*
X48475Y-27534D01*
X48750Y-27649D01*
X49048Y-27649D01*
X49323Y-27535D01*
X49534Y-27325D01*
X49649Y-27050D01*
X49649Y-28821D01*
X47447Y-28821D01*
X47447Y-19608D01*
X47438Y-19344D01*
X47354Y-19145D01*
X47247Y-19104D01*
X47176Y-19175D01*
X47176Y-19033D01*
X47135Y-18926D01*
X46888Y-18833D01*
X46624Y-18842D01*
X46425Y-18926D01*
X46384Y-19033D01*
X46780Y-19429D01*
X47176Y-19033D01*
X47176Y-19175D01*
X46851Y-19500D01*
X47247Y-19896D01*
X47354Y-19855D01*
X47447Y-19608D01*
X47447Y-28821D01*
X47176Y-28821D01*
X47176Y-19967D01*
X46780Y-19571D01*
X46709Y-19642D01*
X46709Y-19500D01*
X46313Y-19104D01*
X46206Y-19145D01*
X46113Y-19392D01*
X46122Y-19656D01*
X46206Y-19855D01*
X46313Y-19896D01*
X46709Y-19500D01*
X46709Y-19642D01*
X46384Y-19967D01*
X46425Y-20074D01*
X46672Y-20167D01*
X46936Y-20158D01*
X47135Y-20074D01*
X47176Y-19967D01*
X47176Y-28821D01*
X45975Y-28821D01*
X45975Y-19635D01*
X45975Y-19366D01*
X45872Y-19118D01*
X45683Y-18928D01*
X45435Y-18825D01*
X45166Y-18825D01*
X44918Y-18928D01*
X44728Y-19117D01*
X44625Y-19365D01*
X44625Y-19634D01*
X44728Y-19882D01*
X44917Y-20072D01*
X45010Y-20110D01*
X45010Y-22111D01*
X44495Y-22626D01*
X44495Y-19635D01*
X44495Y-19366D01*
X44392Y-19118D01*
X44203Y-18928D01*
X44180Y-18918D01*
X44180Y-15770D01*
X44180Y-15352D01*
X44020Y-14966D01*
X43725Y-14670D01*
X43340Y-14510D01*
X42922Y-14510D01*
X42536Y-14670D01*
X42240Y-14965D01*
X42080Y-15350D01*
X42080Y-15768D01*
X42240Y-16154D01*
X42535Y-16450D01*
X42920Y-16610D01*
X43338Y-16610D01*
X43724Y-16450D01*
X44020Y-16155D01*
X44180Y-15770D01*
X44180Y-18918D01*
X43955Y-18825D01*
X43686Y-18825D01*
X43438Y-18928D01*
X43248Y-19117D01*
X43145Y-19365D01*
X43145Y-19634D01*
X43158Y-19666D01*
X39775Y-23050D01*
X38726Y-23050D01*
X38611Y-22935D01*
X38409Y-22851D01*
X38191Y-22851D01*
X37989Y-22935D01*
X37835Y-23089D01*
X37751Y-23291D01*
X37751Y-23509D01*
X37835Y-23711D01*
X37989Y-23865D01*
X38191Y-23949D01*
X38409Y-23949D01*
X38611Y-23865D01*
X38726Y-23750D01*
X39920Y-23750D01*
X39920Y-23749D01*
X40054Y-23723D01*
X40167Y-23647D01*
X43653Y-20161D01*
X43685Y-20175D01*
X43954Y-20175D01*
X44202Y-20072D01*
X44392Y-19883D01*
X44495Y-19635D01*
X44495Y-22626D01*
X42325Y-24796D01*
X42245Y-24603D01*
X42098Y-24455D01*
X41905Y-24375D01*
X41696Y-24375D01*
X41503Y-24455D01*
X41355Y-24602D01*
X41351Y-24610D01*
X40800Y-24610D01*
X40689Y-24632D01*
X40595Y-24695D01*
X38430Y-26859D01*
X38409Y-26851D01*
X38191Y-26851D01*
X37989Y-26935D01*
X37835Y-27089D01*
X37751Y-27291D01*
X37751Y-27509D01*
X37835Y-27711D01*
X37989Y-27865D01*
X38191Y-27949D01*
X38409Y-27949D01*
X38611Y-27865D01*
X38765Y-27711D01*
X38849Y-27509D01*
X38849Y-27291D01*
X38840Y-27269D01*
X40920Y-25190D01*
X41286Y-25190D01*
X40615Y-25861D01*
X40516Y-25861D01*
X40360Y-25925D01*
X40240Y-26045D01*
X40175Y-26201D01*
X40175Y-26370D01*
X40239Y-26526D01*
X40359Y-26646D01*
X40515Y-26711D01*
X40684Y-26711D01*
X40840Y-26647D01*
X40960Y-26527D01*
X41025Y-26371D01*
X41025Y-26271D01*
X41290Y-26005D01*
X41292Y-26030D01*
X41348Y-26167D01*
X41439Y-26190D01*
X41694Y-25935D01*
X41729Y-25900D01*
X41800Y-25829D01*
X41871Y-25900D01*
X41906Y-25935D01*
X42161Y-26190D01*
X42252Y-26167D01*
X42319Y-25974D01*
X42308Y-25770D01*
X42252Y-25633D01*
X42217Y-25623D01*
X42223Y-25617D01*
X42308Y-25602D01*
X42402Y-25539D01*
X45505Y-22436D01*
X45568Y-22342D01*
X45590Y-22231D01*
X45590Y-20110D01*
X45682Y-20072D01*
X45872Y-19883D01*
X45975Y-19635D01*
X45975Y-28821D01*
X42090Y-28821D01*
X42090Y-26261D01*
X41800Y-25971D01*
X41510Y-26261D01*
X41533Y-26352D01*
X41726Y-26419D01*
X41930Y-26408D01*
X42067Y-26352D01*
X42090Y-26261D01*
X42090Y-28821D01*
X37250Y-28821D01*
X37250Y-18753D01*
X37060Y-18293D01*
X36709Y-17941D01*
X36250Y-17751D01*
X35753Y-17750D01*
X35293Y-17940D01*
X34941Y-18291D01*
X34755Y-18738D01*
X34600Y-18363D01*
X34445Y-18264D01*
X34374Y-18335D01*
X34374Y-18193D01*
X34275Y-18038D01*
X33859Y-17867D01*
X33408Y-17869D01*
X33001Y-18038D01*
X32902Y-18193D01*
X33638Y-18929D01*
X34374Y-18193D01*
X34374Y-18335D01*
X33709Y-19000D01*
X34445Y-19736D01*
X34600Y-19637D01*
X34755Y-19259D01*
X34940Y-19707D01*
X35291Y-20059D01*
X35750Y-20249D01*
X36247Y-20250D01*
X36707Y-20060D01*
X37059Y-19709D01*
X37249Y-19250D01*
X37250Y-18753D01*
X37250Y-28821D01*
X36989Y-28821D01*
X36878Y-28843D01*
X36783Y-28906D01*
X36164Y-29525D01*
X36118Y-29506D01*
X35882Y-29506D01*
X35664Y-29596D01*
X35500Y-29760D01*
X35337Y-29597D01*
X35118Y-29506D01*
X34882Y-29506D01*
X34790Y-29543D01*
X34790Y-26293D01*
X34789Y-26292D01*
X34768Y-26182D01*
X34767Y-26181D01*
X34748Y-26153D01*
X34811Y-26091D01*
X34849Y-26000D01*
X34849Y-25975D01*
X34989Y-26115D01*
X35191Y-26199D01*
X35409Y-26199D01*
X35611Y-26115D01*
X35765Y-25961D01*
X35849Y-25759D01*
X35849Y-25541D01*
X35765Y-25339D01*
X35611Y-25185D01*
X35526Y-25150D01*
X35611Y-25115D01*
X35765Y-24961D01*
X35849Y-24759D01*
X35849Y-24541D01*
X35765Y-24339D01*
X35611Y-24185D01*
X35409Y-24101D01*
X35191Y-24101D01*
X34989Y-24185D01*
X34835Y-24339D01*
X34800Y-24423D01*
X34765Y-24339D01*
X34611Y-24185D01*
X34409Y-24101D01*
X34374Y-24101D01*
X34374Y-19807D01*
X33638Y-19071D01*
X33567Y-19142D01*
X33567Y-19000D01*
X32900Y-18333D01*
X32900Y-14680D01*
X32900Y-14322D01*
X32763Y-13991D01*
X32511Y-13738D01*
X32180Y-13600D01*
X31822Y-13600D01*
X31491Y-13737D01*
X31238Y-13989D01*
X31100Y-14320D01*
X31100Y-14678D01*
X31237Y-15009D01*
X31489Y-15262D01*
X31820Y-15400D01*
X32178Y-15400D01*
X32509Y-15263D01*
X32762Y-15011D01*
X32900Y-14680D01*
X32900Y-18333D01*
X32831Y-18264D01*
X32676Y-18363D01*
X32505Y-18779D01*
X32507Y-19230D01*
X32676Y-19637D01*
X32831Y-19736D01*
X33567Y-19000D01*
X33567Y-19142D01*
X32902Y-19807D01*
X33001Y-19962D01*
X33417Y-20133D01*
X33868Y-20131D01*
X34275Y-19962D01*
X34374Y-19807D01*
X34374Y-24101D01*
X34191Y-24101D01*
X33989Y-24185D01*
X33835Y-24339D01*
X33751Y-24541D01*
X33751Y-24759D01*
X33835Y-24961D01*
X33975Y-25101D01*
X33951Y-25101D01*
X33859Y-25139D01*
X33789Y-25209D01*
X33751Y-25300D01*
X33751Y-25399D01*
X33751Y-25999D01*
X33789Y-26091D01*
X33859Y-26161D01*
X33950Y-26199D01*
X34031Y-26199D01*
X34032Y-26204D01*
X34095Y-26298D01*
X34210Y-26413D01*
X34210Y-29544D01*
X34118Y-29506D01*
X33882Y-29506D01*
X33664Y-29596D01*
X33500Y-29760D01*
X33337Y-29597D01*
X33118Y-29506D01*
X32882Y-29506D01*
X32664Y-29596D01*
X32500Y-29760D01*
X32337Y-29597D01*
X32118Y-29506D01*
X31882Y-29506D01*
X31664Y-29596D01*
X31500Y-29760D01*
X31337Y-29597D01*
X31118Y-29506D01*
X31050Y-29506D01*
X31050Y-13550D01*
X87950Y-13550D01*
X87950Y-46450D01*
X87950Y-46450D01*
G37*
G54D27*
X87950Y-46450D02*
X87900Y-46450D01*
X87900Y-45680D01*
X87900Y-45322D01*
X87900Y-14680D01*
X87900Y-14322D01*
X87763Y-13991D01*
X87511Y-13738D01*
X87180Y-13600D01*
X86822Y-13600D01*
X86491Y-13737D01*
X86238Y-13989D01*
X86100Y-14320D01*
X86100Y-14678D01*
X86237Y-15009D01*
X86489Y-15262D01*
X86820Y-15400D01*
X87178Y-15400D01*
X87509Y-15263D01*
X87762Y-15011D01*
X87900Y-14680D01*
X87900Y-45322D01*
X87763Y-44991D01*
X87511Y-44738D01*
X87180Y-44600D01*
X86822Y-44600D01*
X86549Y-44712D01*
X86549Y-37850D01*
X86549Y-37751D01*
X86549Y-37151D01*
X86543Y-37136D01*
X86543Y-36579D01*
X86532Y-36366D01*
X86472Y-36219D01*
X86378Y-36192D01*
X86071Y-36500D01*
X86378Y-36808D01*
X86472Y-36781D01*
X86543Y-36579D01*
X86543Y-37136D01*
X86511Y-37059D01*
X86441Y-36989D01*
X86350Y-36951D01*
X86287Y-36951D01*
X86308Y-36878D01*
X86000Y-36571D01*
X85929Y-36641D01*
X85929Y-36500D01*
X85622Y-36192D01*
X85528Y-36219D01*
X85457Y-36421D01*
X85468Y-36634D01*
X85528Y-36781D01*
X85622Y-36808D01*
X85929Y-36500D01*
X85929Y-36641D01*
X85692Y-36878D01*
X85712Y-36951D01*
X85651Y-36951D01*
X85559Y-36989D01*
X85489Y-37059D01*
X85451Y-37150D01*
X85451Y-37249D01*
X85451Y-37849D01*
X85489Y-37941D01*
X85559Y-38011D01*
X85650Y-38049D01*
X85749Y-38049D01*
X86349Y-38049D01*
X86441Y-38011D01*
X86511Y-37941D01*
X86549Y-37850D01*
X86549Y-44712D01*
X86491Y-44737D01*
X86238Y-44989D01*
X86100Y-45320D01*
X86100Y-45678D01*
X86237Y-46009D01*
X86489Y-46262D01*
X86820Y-46400D01*
X87178Y-46400D01*
X87509Y-46263D01*
X87762Y-46011D01*
X87900Y-45680D01*
X87900Y-46450D01*
X83580Y-46450D01*
X83580Y-37460D01*
X83580Y-37042D01*
X83420Y-36656D01*
X83125Y-36360D01*
X82740Y-36200D01*
X82322Y-36200D01*
X81936Y-36360D01*
X81640Y-36655D01*
X81480Y-37040D01*
X81480Y-37458D01*
X81640Y-37844D01*
X81935Y-38140D01*
X82320Y-38300D01*
X82738Y-38300D01*
X83124Y-38140D01*
X83420Y-37845D01*
X83580Y-37460D01*
X83580Y-46450D01*
X82343Y-46450D01*
X82343Y-42591D01*
X82332Y-42356D01*
X82263Y-42190D01*
X82164Y-42157D01*
X81821Y-42500D01*
X82164Y-42843D01*
X82263Y-42810D01*
X82343Y-42591D01*
X82343Y-46450D01*
X32900Y-46450D01*
X32900Y-45680D01*
X32900Y-45322D01*
X32763Y-44991D01*
X32511Y-44738D01*
X32180Y-44600D01*
X31822Y-44600D01*
X31491Y-44737D01*
X31238Y-44989D01*
X31100Y-45320D01*
X31100Y-45678D01*
X31237Y-46009D01*
X31489Y-46262D01*
X31820Y-46400D01*
X32178Y-46400D01*
X32509Y-46263D01*
X32762Y-46011D01*
X32900Y-45680D01*
X32900Y-46450D01*
X31050Y-46450D01*
X31050Y-36694D01*
X31118Y-36694D01*
X31336Y-36604D01*
X31500Y-36440D01*
X31663Y-36603D01*
X31882Y-36694D01*
X32118Y-36694D01*
X32336Y-36604D01*
X32500Y-36440D01*
X32663Y-36603D01*
X32882Y-36694D01*
X33118Y-36694D01*
X33336Y-36604D01*
X33500Y-36440D01*
X33663Y-36603D01*
X33882Y-36694D01*
X34118Y-36694D01*
X34164Y-36674D01*
X36557Y-39067D01*
X36557Y-40720D01*
X36557Y-40783D01*
X36418Y-40921D01*
X36369Y-40901D01*
X36131Y-40901D01*
X35911Y-40992D01*
X35750Y-41153D01*
X35589Y-40992D01*
X35369Y-40901D01*
X35131Y-40901D01*
X34911Y-40992D01*
X34750Y-41153D01*
X34589Y-40992D01*
X34369Y-40901D01*
X34131Y-40901D01*
X33911Y-40992D01*
X33742Y-41161D01*
X33651Y-41381D01*
X33651Y-41619D01*
X33742Y-41839D01*
X33817Y-41914D01*
X33759Y-41939D01*
X33689Y-42009D01*
X33651Y-42100D01*
X33651Y-42199D01*
X33651Y-42899D01*
X33689Y-42991D01*
X33759Y-43061D01*
X33850Y-43099D01*
X33949Y-43099D01*
X34354Y-43099D01*
X35106Y-43851D01*
X35107Y-43851D01*
X35220Y-43927D01*
X35354Y-43954D01*
X42093Y-43954D01*
X42093Y-43953D01*
X42227Y-43927D01*
X42340Y-43851D01*
X43194Y-42996D01*
X43259Y-43061D01*
X43350Y-43099D01*
X43449Y-43099D01*
X43967Y-43099D01*
X43976Y-43142D01*
X44039Y-43236D01*
X44675Y-43872D01*
X44676Y-43873D01*
X44769Y-43935D01*
X44770Y-43936D01*
X44880Y-43957D01*
X44881Y-43958D01*
X47582Y-43958D01*
X47693Y-43936D01*
X47787Y-43873D01*
X48581Y-43078D01*
X48631Y-43099D01*
X48869Y-43099D01*
X48918Y-43078D01*
X48968Y-43128D01*
X49062Y-43191D01*
X49173Y-43213D01*
X54136Y-43213D01*
X55787Y-44864D01*
X55881Y-44927D01*
X55992Y-44949D01*
X79814Y-44949D01*
X79925Y-44927D01*
X80019Y-44864D01*
X81454Y-43429D01*
X81454Y-43428D01*
X81455Y-43428D01*
X81517Y-43335D01*
X81518Y-43334D01*
X81539Y-43224D01*
X81540Y-43223D01*
X81540Y-43049D01*
X81659Y-43093D01*
X81894Y-43082D01*
X82060Y-43013D01*
X82093Y-42914D01*
X81785Y-42606D01*
X81750Y-42571D01*
X81679Y-42500D01*
X81750Y-42429D01*
X81785Y-42394D01*
X82093Y-42086D01*
X82069Y-42015D01*
X82089Y-42008D01*
X82258Y-41839D01*
X82349Y-41619D01*
X82349Y-41381D01*
X82258Y-41161D01*
X82089Y-40992D01*
X81869Y-40901D01*
X81631Y-40901D01*
X81582Y-40921D01*
X80145Y-39485D01*
X80051Y-39422D01*
X79940Y-39400D01*
X78703Y-39400D01*
X78633Y-39330D01*
X78477Y-39265D01*
X78308Y-39265D01*
X78152Y-39329D01*
X78070Y-39410D01*
X68555Y-29895D01*
X68461Y-29832D01*
X68350Y-29810D01*
X45549Y-29810D01*
X45549Y-29706D01*
X45511Y-29614D01*
X45482Y-29585D01*
X79675Y-29585D01*
X85459Y-35369D01*
X85451Y-35391D01*
X85451Y-35609D01*
X85535Y-35811D01*
X85689Y-35965D01*
X85780Y-36002D01*
X85719Y-36028D01*
X85692Y-36122D01*
X86000Y-36429D01*
X86308Y-36122D01*
X86281Y-36028D01*
X86215Y-36004D01*
X86311Y-35965D01*
X86465Y-35811D01*
X86549Y-35609D01*
X86549Y-35391D01*
X86465Y-35189D01*
X86311Y-35035D01*
X86226Y-35000D01*
X86311Y-34965D01*
X86465Y-34811D01*
X86549Y-34609D01*
X86549Y-34391D01*
X86465Y-34189D01*
X86311Y-34035D01*
X86109Y-33951D01*
X85891Y-33951D01*
X85869Y-33959D01*
X83580Y-31670D01*
X83580Y-17775D01*
X83580Y-17357D01*
X83420Y-16971D01*
X83125Y-16675D01*
X82740Y-16515D01*
X82322Y-16515D01*
X81936Y-16675D01*
X81640Y-16970D01*
X81480Y-17355D01*
X81480Y-17773D01*
X81640Y-18159D01*
X81935Y-18455D01*
X82320Y-18615D01*
X82738Y-18615D01*
X83124Y-18455D01*
X83420Y-18160D01*
X83580Y-17775D01*
X83580Y-31670D01*
X80816Y-28906D01*
X80722Y-28843D01*
X80611Y-28821D01*
X56020Y-28821D01*
X56020Y-17775D01*
X56020Y-17357D01*
X55860Y-16971D01*
X55565Y-16675D01*
X55180Y-16515D01*
X54762Y-16515D01*
X54376Y-16675D01*
X54080Y-16970D01*
X53920Y-17355D01*
X53920Y-17773D01*
X54080Y-18159D01*
X54375Y-18455D01*
X54760Y-18615D01*
X55178Y-18615D01*
X55564Y-18455D01*
X55860Y-18160D01*
X56020Y-17775D01*
X56020Y-28821D01*
X49649Y-28821D01*
X49649Y-27050D01*
X49649Y-26752D01*
X49639Y-26727D01*
X49639Y-25027D01*
X49631Y-24735D01*
X49534Y-24500D01*
X49420Y-24450D01*
X49350Y-24520D01*
X49350Y-24380D01*
X49300Y-24266D01*
X49027Y-24161D01*
X48735Y-24169D01*
X48520Y-24257D01*
X48520Y-15770D01*
X48520Y-15352D01*
X48360Y-14966D01*
X48065Y-14670D01*
X47680Y-14510D01*
X47262Y-14510D01*
X46876Y-14670D01*
X46580Y-14965D01*
X46420Y-15350D01*
X46420Y-15768D01*
X46580Y-16154D01*
X46875Y-16450D01*
X47260Y-16610D01*
X47678Y-16610D01*
X48064Y-16450D01*
X48360Y-16155D01*
X48520Y-15770D01*
X48520Y-24257D01*
X48500Y-24266D01*
X48450Y-24380D01*
X48900Y-24829D01*
X49350Y-24380D01*
X49350Y-24520D01*
X48971Y-24900D01*
X49420Y-25350D01*
X49534Y-25300D01*
X49639Y-25027D01*
X49639Y-26727D01*
X49535Y-26477D01*
X49350Y-26291D01*
X49350Y-25420D01*
X48900Y-24971D01*
X48829Y-25041D01*
X48829Y-24900D01*
X48380Y-24450D01*
X48266Y-24500D01*
X48161Y-24773D01*
X48169Y-25065D01*
X48266Y-25300D01*
X48380Y-25350D01*
X48829Y-24900D01*
X48829Y-25041D01*
X48450Y-25420D01*
X48500Y-25534D01*
X48773Y-25639D01*
X49065Y-25631D01*
X49300Y-25534D01*
X49350Y-25420D01*
X49350Y-26291D01*
X49325Y-26266D01*
X49050Y-26151D01*
X48752Y-26151D01*
X48477Y-26265D01*
X48266Y-26475D01*
X48151Y-26750D01*
X48151Y-27048D01*
X48265Y-27323D01*
X48475Y-27534D01*
X48750Y-27649D01*
X49048Y-27649D01*
X49323Y-27535D01*
X49534Y-27325D01*
X49649Y-27050D01*
X49649Y-28821D01*
X47447Y-28821D01*
X47447Y-19608D01*
X47438Y-19344D01*
X47354Y-19145D01*
X47247Y-19104D01*
X47176Y-19175D01*
X47176Y-19033D01*
X47135Y-18926D01*
X46888Y-18833D01*
X46624Y-18842D01*
X46425Y-18926D01*
X46384Y-19033D01*
X46780Y-19429D01*
X47176Y-19033D01*
X47176Y-19175D01*
X46851Y-19500D01*
X47247Y-19896D01*
X47354Y-19855D01*
X47447Y-19608D01*
X47447Y-28821D01*
X47176Y-28821D01*
X47176Y-19967D01*
X46780Y-19571D01*
X46709Y-19642D01*
X46709Y-19500D01*
X46313Y-19104D01*
X46206Y-19145D01*
X46113Y-19392D01*
X46122Y-19656D01*
X46206Y-19855D01*
X46313Y-19896D01*
X46709Y-19500D01*
X46709Y-19642D01*
X46384Y-19967D01*
X46425Y-20074D01*
X46672Y-20167D01*
X46936Y-20158D01*
X47135Y-20074D01*
X47176Y-19967D01*
X47176Y-28821D01*
X45975Y-28821D01*
X45975Y-19635D01*
X45975Y-19366D01*
X45872Y-19118D01*
X45683Y-18928D01*
X45435Y-18825D01*
X45166Y-18825D01*
X44918Y-18928D01*
X44728Y-19117D01*
X44625Y-19365D01*
X44625Y-19634D01*
X44728Y-19882D01*
X44917Y-20072D01*
X45010Y-20110D01*
X45010Y-22111D01*
X44495Y-22626D01*
X44495Y-19635D01*
X44495Y-19366D01*
X44392Y-19118D01*
X44203Y-18928D01*
X44180Y-18918D01*
X44180Y-15770D01*
X44180Y-15352D01*
X44020Y-14966D01*
X43725Y-14670D01*
X43340Y-14510D01*
X42922Y-14510D01*
X42536Y-14670D01*
X42240Y-14965D01*
X42080Y-15350D01*
X42080Y-15768D01*
X42240Y-16154D01*
X42535Y-16450D01*
X42920Y-16610D01*
X43338Y-16610D01*
X43724Y-16450D01*
X44020Y-16155D01*
X44180Y-15770D01*
X44180Y-18918D01*
X43955Y-18825D01*
X43686Y-18825D01*
X43438Y-18928D01*
X43248Y-19117D01*
X43145Y-19365D01*
X43145Y-19634D01*
X43158Y-19666D01*
X39775Y-23050D01*
X38726Y-23050D01*
X38611Y-22935D01*
X38409Y-22851D01*
X38191Y-22851D01*
X37989Y-22935D01*
X37835Y-23089D01*
X37751Y-23291D01*
X37751Y-23509D01*
X37835Y-23711D01*
X37989Y-23865D01*
X38191Y-23949D01*
X38409Y-23949D01*
X38611Y-23865D01*
X38726Y-23750D01*
X39920Y-23750D01*
X39920Y-23749D01*
X40054Y-23723D01*
X40167Y-23647D01*
X43653Y-20161D01*
X43685Y-20175D01*
X43954Y-20175D01*
X44202Y-20072D01*
X44392Y-19883D01*
X44495Y-19635D01*
X44495Y-22626D01*
X42325Y-24796D01*
X42245Y-24603D01*
X42098Y-24455D01*
X41905Y-24375D01*
X41696Y-24375D01*
X41503Y-24455D01*
X41355Y-24602D01*
X41351Y-24610D01*
X40800Y-24610D01*
X40689Y-24632D01*
X40595Y-24695D01*
X38430Y-26859D01*
X38409Y-26851D01*
X38191Y-26851D01*
X37989Y-26935D01*
X37835Y-27089D01*
X37751Y-27291D01*
X37751Y-27509D01*
X37835Y-27711D01*
X37989Y-27865D01*
X38191Y-27949D01*
X38409Y-27949D01*
X38611Y-27865D01*
X38765Y-27711D01*
X38849Y-27509D01*
X38849Y-27291D01*
X38840Y-27269D01*
X40920Y-25190D01*
X41286Y-25190D01*
X40615Y-25861D01*
X40516Y-25861D01*
X40360Y-25925D01*
X40240Y-26045D01*
X40175Y-26201D01*
X40175Y-26370D01*
X40239Y-26526D01*
X40359Y-26646D01*
X40515Y-26711D01*
X40684Y-26711D01*
X40840Y-26647D01*
X40960Y-26527D01*
X41025Y-26371D01*
X41025Y-26271D01*
X41290Y-26005D01*
X41292Y-26030D01*
X41348Y-26167D01*
X41439Y-26190D01*
X41694Y-25935D01*
X41729Y-25900D01*
X41800Y-25829D01*
X41871Y-25900D01*
X41906Y-25935D01*
X42161Y-26190D01*
X42252Y-26167D01*
X42319Y-25974D01*
X42308Y-25770D01*
X42252Y-25633D01*
X42217Y-25623D01*
X42223Y-25617D01*
X42308Y-25602D01*
X42402Y-25539D01*
X45505Y-22436D01*
X45568Y-22342D01*
X45590Y-22231D01*
X45590Y-20110D01*
X45682Y-20072D01*
X45872Y-19883D01*
X45975Y-19635D01*
X45975Y-28821D01*
X42090Y-28821D01*
X42090Y-26261D01*
X41800Y-25971D01*
X41510Y-26261D01*
X41533Y-26352D01*
X41726Y-26419D01*
X41930Y-26408D01*
X42067Y-26352D01*
X42090Y-26261D01*
X42090Y-28821D01*
X37250Y-28821D01*
X37250Y-18753D01*
X37060Y-18293D01*
X36709Y-17941D01*
X36250Y-17751D01*
X35753Y-17750D01*
X35293Y-17940D01*
X34941Y-18291D01*
X34755Y-18738D01*
X34600Y-18363D01*
X34445Y-18264D01*
X34374Y-18335D01*
X34374Y-18193D01*
X34275Y-18038D01*
X33859Y-17867D01*
X33408Y-17869D01*
X33001Y-18038D01*
X32902Y-18193D01*
X33638Y-18929D01*
X34374Y-18193D01*
X34374Y-18335D01*
X33709Y-19000D01*
X34445Y-19736D01*
X34600Y-19637D01*
X34755Y-19259D01*
X34940Y-19707D01*
X35291Y-20059D01*
X35750Y-20249D01*
X36247Y-20250D01*
X36707Y-20060D01*
X37059Y-19709D01*
X37249Y-19250D01*
X37250Y-18753D01*
X37250Y-28821D01*
X36989Y-28821D01*
X36878Y-28843D01*
X36783Y-28906D01*
X36164Y-29525D01*
X36118Y-29506D01*
X35882Y-29506D01*
X35664Y-29596D01*
X35500Y-29760D01*
X35337Y-29597D01*
X35118Y-29506D01*
X34882Y-29506D01*
X34790Y-29543D01*
X34790Y-26293D01*
X34789Y-26292D01*
X34768Y-26182D01*
X34767Y-26181D01*
X34748Y-26153D01*
X34811Y-26091D01*
X34849Y-26000D01*
X34849Y-25975D01*
X34989Y-26115D01*
X35191Y-26199D01*
X35409Y-26199D01*
X35611Y-26115D01*
X35765Y-25961D01*
X35849Y-25759D01*
X35849Y-25541D01*
X35765Y-25339D01*
X35611Y-25185D01*
X35526Y-25150D01*
X35611Y-25115D01*
X35765Y-24961D01*
X35849Y-24759D01*
X35849Y-24541D01*
X35765Y-24339D01*
X35611Y-24185D01*
X35409Y-24101D01*
X35191Y-24101D01*
X34989Y-24185D01*
X34835Y-24339D01*
X34800Y-24423D01*
X34765Y-24339D01*
X34611Y-24185D01*
X34409Y-24101D01*
X34374Y-24101D01*
X34374Y-19807D01*
X33638Y-19071D01*
X33567Y-19142D01*
X33567Y-19000D01*
X32900Y-18333D01*
X32900Y-14680D01*
X32900Y-14322D01*
X32763Y-13991D01*
X32511Y-13738D01*
X32180Y-13600D01*
X31822Y-13600D01*
X31491Y-13737D01*
X31238Y-13989D01*
X31100Y-14320D01*
X31100Y-14678D01*
X31237Y-15009D01*
X31489Y-15262D01*
X31820Y-15400D01*
X32178Y-15400D01*
X32509Y-15263D01*
X32762Y-15011D01*
X32900Y-14680D01*
X32900Y-18333D01*
X32831Y-18264D01*
X32676Y-18363D01*
X32505Y-18779D01*
X32507Y-19230D01*
X32676Y-19637D01*
X32831Y-19736D01*
X33567Y-19000D01*
X33567Y-19142D01*
X32902Y-19807D01*
X33001Y-19962D01*
X33417Y-20133D01*
X33868Y-20131D01*
X34275Y-19962D01*
X34374Y-19807D01*
X34374Y-24101D01*
X34191Y-24101D01*
X33989Y-24185D01*
X33835Y-24339D01*
X33751Y-24541D01*
X33751Y-24759D01*
X33835Y-24961D01*
X33975Y-25101D01*
X33951Y-25101D01*
X33859Y-25139D01*
X33789Y-25209D01*
X33751Y-25300D01*
X33751Y-25399D01*
X33751Y-25999D01*
X33789Y-26091D01*
X33859Y-26161D01*
X33950Y-26199D01*
X34031Y-26199D01*
X34032Y-26204D01*
X34095Y-26298D01*
X34210Y-26413D01*
X34210Y-29544D01*
X34118Y-29506D01*
X33882Y-29506D01*
X33664Y-29596D01*
X33500Y-29760D01*
X33337Y-29597D01*
X33118Y-29506D01*
X32882Y-29506D01*
X32664Y-29596D01*
X32500Y-29760D01*
X32337Y-29597D01*
X32118Y-29506D01*
X31882Y-29506D01*
X31664Y-29596D01*
X31500Y-29760D01*
X31337Y-29597D01*
X31118Y-29506D01*
X31050Y-29506D01*
X31050Y-13550D01*
X87950Y-13550D01*
X87950Y-46450D01*
M02*
