M48
;DRILL file {PCBnew (2011-07-19)-testing} date Fri 05 Aug 2011 12:20:03 PM PDT
;FORMAT={2:4/ absolute / inch / suppress trailing zeros}
FMAT,2
INCH,LZ
T1C0.025
T2C0.032
T3C0.039
T4C0.040
T5C0.051
T6C0.102
T7C0.110
T8C0.118
T9C0.120
%
G90
G05
M72
T1
X040344Y-039382
X0406Y-026286
X041394Y-043053
X043927Y-038
X045299Y-043274
X049805Y-042302
X057818Y-043441
X058755Y-043829
X065183Y-043433
X07466Y-042983
X078392Y-03969
T2
X0383Y-0234
X0383Y-0274
X0418Y-0249
X0418Y-0259
X049Y-035
X049Y-038
X05075Y-035
X05075Y-038
T3
X031Y-0301
X031Y-0361
X032Y-0301
X032Y-0361
X033Y-0301
X033Y-0361
X034Y-0301
X034Y-0361
X035Y-0301
X035Y-0361
X036Y-0301
X036Y-0361
X037Y-0301
X037Y-0361
X038Y-0301
X038Y-0361
X039Y-0301
X039Y-0361
X04Y-0301
X04Y-0361
X041Y-0301
X041Y-0361
X042Y-0301
X042Y-0361
X043Y-0301
X043Y-0361
X044Y-0301
X044Y-0361
X045Y-0301
X045Y-0361
T4
X03425Y-0415
X03425Y-0425
X0343Y-02465
X0343Y-02565
X03525Y-0415
X03525Y-0425
X0353Y-02465
X0353Y-02565
X03625Y-0415
X03625Y-0425
X03725Y-0415
X03725Y-0425
X03825Y-0415
X03825Y-0425
X03925Y-0415
X03925Y-0425
X04375Y-0415
X04375Y-0425
X04475Y-0415
X04475Y-0425
X04575Y-0415
X04575Y-0425
X04675Y-0415
X04675Y-0425
X04775Y-0415
X04775Y-0425
X04875Y-0415
X04875Y-0425
X0489Y-0249
X0489Y-0269
X05475Y-0415
X05475Y-0425
X05575Y-0415
X05575Y-0425
X05675Y-0415
X05675Y-0425
X05775Y-0415
X05775Y-0425
X06225Y-0415
X06225Y-0425
X06325Y-0415
X06325Y-0425
X06425Y-0415
X06425Y-0425
X06525Y-0415
X06525Y-0425
X07125Y-0415
X07125Y-0425
X07225Y-0415
X07225Y-0425
X07325Y-0415
X07325Y-0425
X07425Y-0415
X07425Y-0425
X07875Y-0415
X07875Y-0425
X07975Y-0415
X07975Y-0425
X08075Y-0415
X08075Y-0425
X08175Y-0415
X08175Y-0425
X086Y-0345
X086Y-0355
X086Y-0365
X086Y-0375
T5
X04382Y-0195
X0453Y-0195
X04678Y-0195
T6
X033638Y-019
T7
X04313Y-01556
X04747Y-01556
X05497Y-017565
X05497Y-03725
X08253Y-017565
X08253Y-03725
T8
X036Y-019
T9
X032Y-0145
X032Y-0455
X087Y-0145
X087Y-0455
T0
M30
